<?xml version="1.0" encoding="UTF-8" standalone="no"?>
<svg
   xmlns:dc="http://purl.org/dc/elements/1.1/"
   xmlns:cc="http://creativecommons.org/ns#"
   xmlns:rdf="http://www.w3.org/1999/02/22-rdf-syntax-ns#"
   xmlns:svg="http://www.w3.org/2000/svg"
   xmlns="http://www.w3.org/2000/svg"
   viewBox="0 0 2133.3333 1600"
   height="1600"
   width="2133.3333"
   xml:space="preserve"
   id="svg45"
   version="1.1"><metadata
     id="metadata51"><rdf:RDF><cc:Work
         rdf:about=""><dc:format>image/svg+xml</dc:format><dc:type
           rdf:resource="http://purl.org/dc/dcmitype/StillImage" /><dc:title></dc:title></cc:Work></rdf:RDF></metadata><defs
     id="defs49" /><g
     transform="matrix(1.3333333,0,0,-1.3333333,0,1600)"
     id="g53"><path
       d="m 1051.7882,245.99908 c -0.3094,-1.39372 -0.4827,-2.83694 -0.4827,-4.32349 0,-11.08784 8.9861,-20.07767 20.0764,-20.07767 11.0903,0 20.0764,8.98983 20.0764,20.07767 0,1.48655 -0.1732,2.92977 -0.4703,4.32349 h -39.1998"
       style="fill:#46484a;fill-opacity:1;fill-rule:nonzero;stroke:none;stroke-width:0.12377578"
       id="path59" /><path
       d="m 940.7069,246.1179 c -0.30573,-1.39371 -0.47901,-2.83818 -0.47901,-4.32349 0,-11.08907 8.98859,-20.07767 20.07766,-20.07767 11.08908,0 20.07767,8.9886 20.07767,20.07767 0,1.48531 -0.17328,2.92978 -0.47901,4.32349 H 940.7069"
       style="fill:#46484a;fill-opacity:1;fill-rule:nonzero;stroke:none;stroke-width:0.12377578"
       id="path61" /><path
       d="m 922.30763,356.29196 c -1.24271,-0.81939 -7.153,-86.89678 -4.79136,-111.74353 55.48744,-4.97332 111.45763,-5.24934 166.99823,-0.82683 3.9113,41.79166 3.3048,83.94845 -1.8195,125.62623 -59.1475,-9.51836 -160.02595,-14.90384 -160.38737,-13.05587"
       style="fill:#b5bbbf;fill-opacity:1;fill-rule:nonzero;stroke:none;stroke-width:0.12377578"
       id="path63" /><path
       d="m 1082.695,369.34783 c -10.1001,-1.62641 -21.4256,-3.13153 -33.2585,-4.50049 0.1114,-41.08489 0.3218,-82.18588 0.062,-123.27696 11.6844,0.51491 23.3564,1.2229 35.0161,2.15122 3.9113,41.79166 3.3048,83.94845 -1.8195,125.62623"
       style="fill:#a2a7ab;fill-opacity:1;fill-rule:nonzero;stroke:none;stroke-width:0.12377578"
       id="path65" /><path
       d="m 911.85476,241.78946 c -0.30572,-1.39371 -0.47901,-2.83694 -0.47901,-4.32225 0,-11.08907 8.98984,-20.0789 20.07767,-20.0789 11.08907,0 20.07891,8.98983 20.07891,20.0789 0,1.48531 -0.17329,2.92854 -0.47901,4.32225 h -39.19856"
       style="fill:#525457;fill-opacity:1;fill-rule:nonzero;stroke:none;stroke-width:0.12377578"
       id="path67" /><path
       d="m 1021.4916,241.78946 c -0.3057,-1.39371 -0.479,-2.83694 -0.479,-4.32225 0,-11.08907 8.9898,-20.0789 20.0814,-20.0789 11.0903,0 20.0764,8.98983 20.0764,20.0789 0,1.48531 -0.1733,2.92854 -0.4827,4.32225 h -39.1961"
       style="fill:#525457;fill-opacity:1;fill-rule:nonzero;stroke:none;stroke-width:0.12377578"
       id="path69" /><path
       d="M 1092.659,237.28402 H 907.29734 v 19.47489 H 1092.659 v -19.47489"
       style="fill:#c4cbcf;fill-opacity:1;fill-rule:nonzero;stroke:none;stroke-width:0.12377578"
       id="path71" /><path
       d="m 1064.0296,256.75891 c -0.1361,-6.49328 -0.3342,-12.98408 -0.5817,-19.47489 h 29.2111 v 19.47489 h -28.6294"
       style="fill:#abb1b5;fill-opacity:1;fill-rule:nonzero;stroke:none;stroke-width:0.12377578"
       id="path73" /><path
       d="m 1269.9431,458.30672 c -10.2115,-2.16855 -22.9852,0 -38.2963,0 0,-4.51657 0.4332,-57.2203 0.6189,-109.7854 H 342.55053 c 1.23529,49.5821 1.81208,98.01433 -0.69933,107.61685 -10.21274,-2.16979 -22.97897,0 -38.29746,0 0,-8.67668 1.60042,-195.15356 0,-216.90963 -2.5535,-34.70549 35.74397,-32.53694 35.74397,-6.50813 0,9.27823 1.15854,42.17165 2.27376,80.05694 h 890.78093 c 0.025,-34.46908 -0.1362,-63.56134 -0.7056,-71.38026 -2.5498,-34.70549 41.2421,-30.17901 41.2421,-4.14896 0,23.85902 2.1537,201.53668 -2.9458,221.05859"
       style="fill:#90979c;fill-opacity:1;fill-rule:nonzero;stroke:none;stroke-width:0.12377578"
       id="path75" /><path
       d="m 454.1901,202.99194 c 0,-31.02192 -25.14753,-56.17563 -56.16945,-56.17563 -31.02192,0 -56.16945,25.15371 -56.16945,56.17563 0,31.02069 25.14753,56.16945 56.16945,56.16945 31.02192,0 56.16945,-25.14876 56.16945,-56.16945"
       style="fill:#363739;fill-opacity:1;fill-rule:nonzero;stroke:none;stroke-width:0.12377578"
       id="path77" /><path
       d="m 1387.3815,205.5442 c 0,-31.02069 -25.1388,-56.16574 -56.1694,-56.16574 -31.0182,0 -56.1695,25.14505 -56.1695,56.16574 0,31.02192 25.1513,56.16945 56.1695,56.16945 31.0306,0 56.1694,-25.14753 56.1694,-56.16945"
       style="fill:#363739;fill-opacity:1;fill-rule:nonzero;stroke:none;stroke-width:0.12377578"
       id="path79" /><path
       d="m 331.21762,254.42449 c 31.86113,-15.23432 53.30899,-26.76898 66.53691,-33.09393 31.85989,-15.23432 15.12416,-43.06035 -8.38333,-32.98377 -13.0633,5.59962 -66.06161,30.18892 -73.43494,35.57688 -19.56895,14.30105 -2.1735,38.84703 15.28136,30.50082"
       style="fill:#90979c;fill-opacity:1;fill-rule:nonzero;stroke:none;stroke-width:0.12377578"
       id="path81" /><path
       d="m 1261.9224,255.55952 c 31.8599,-15.23432 53.3102,-26.77023 66.5418,-33.09393 31.8599,-15.23433 15.1254,-43.06036 -8.392,-32.98377 -13.0583,5.59961 -66.0591,30.18891 -73.4237,35.57687 -19.569,14.30105 -2.1785,38.84579 15.2739,30.50083"
       style="fill:#90979c;fill-opacity:1;fill-rule:nonzero;stroke:none;stroke-width:0.12377578"
       id="path83" /><path
       d="m 407.69496,203.11943 c 0,-5.17011 -4.19228,-9.3624 -9.3624,-9.3624 -5.17011,0 -9.36116,4.19229 -9.36116,9.3624 0,5.17012 4.19105,9.3624 9.36116,9.3624 5.17012,0 9.3624,-4.19228 9.3624,-9.3624"
       style="fill:#363739;fill-opacity:1;fill-rule:nonzero;stroke:none;stroke-width:0.12377578"
       id="path85" /><path
       d="m 332.79824,237.16272 c 0,-5.17011 -4.19105,-9.36116 -9.36116,-9.36116 -5.17136,0 -9.3624,4.19105 -9.3624,9.36116 0,5.17136 4.19104,9.3624 9.3624,9.3624 5.17011,0 9.36116,-4.19104 9.36116,-9.3624"
       style="fill:#363739;fill-opacity:1;fill-rule:nonzero;stroke:none;stroke-width:0.12377578"
       id="path87" /><path
       d="m 1338.4034,204.82135 c 0,-5.17011 -4.196,-9.36116 -9.3698,-9.36116 -5.1614,0 -9.3574,4.19105 -9.3574,9.36116 0,5.17135 4.196,9.3624 9.3574,9.3624 5.1738,0 9.3698,-4.19105 9.3698,-9.3624"
       style="fill:#363739;fill-opacity:1;fill-rule:nonzero;stroke:none;stroke-width:0.12377578"
       id="path89" /><path
       d="m 1263.5067,238.86588 c 0,-5.17135 -4.196,-9.3624 -9.3698,-9.3624 -5.1615,0 -9.3575,4.19105 -9.3575,9.3624 0,5.17011 4.196,9.36116 9.3575,9.36116 5.1738,0 9.3698,-4.19105 9.3698,-9.36116"
       style="fill:#363739;fill-opacity:1;fill-rule:nonzero;stroke:none;stroke-width:0.12377578"
       id="path91" /><path
       d="m 1389.0772,425.99753 c -10.2115,-2.16855 -22.9727,0 -38.2962,0 0,-4.51658 0.4332,-57.2203 0.6313,-109.7854 H 206.36252 c 1.23404,49.58086 1.81207,98.01432 -0.69934,107.61685 -10.21274,-2.16979 -22.97897,0 -38.29746,0 0,-8.67668 1.60042,-195.15356 0,-216.91087 -2.5535,-34.70549 35.74397,-32.5357 35.74397,-6.50689 0,9.27823 1.1573,42.17165 2.27376,80.05694 H 1351.4865 c 0.037,-34.46908 -0.1237,-63.56134 -0.7055,-71.38026 -2.5498,-34.70549 35.7465,-32.53694 35.7465,-6.50689 0,23.85902 7.6617,203.89461 2.5497,223.41652"
       style="fill:#abb1b5;fill-opacity:1;fill-rule:nonzero;stroke:none;stroke-width:0.12377578"
       id="path93" /><path
       d="m 318.00084,170.68151 c 0,-31.01944 -25.14752,-56.17068 -56.16945,-56.17068 -31.02068,0 -56.16821,25.15124 -56.16821,56.17068 0,31.02193 25.14753,56.16945 56.16821,56.16945 31.02193,0 56.16945,-25.14752 56.16945,-56.16945"
       style="fill:#46484a;fill-opacity:1;fill-rule:nonzero;stroke:none;stroke-width:0.12377578"
       id="path95" /><path
       d="m 1506.5281,173.23501 c 0,-31.02316 -25.1513,-56.1744 -56.1695,-56.1744 -31.0182,0 -56.1694,25.15124 -56.1694,56.1744 0,31.02192 25.1512,56.16945 56.1694,56.16945 31.0182,0 56.1695,-25.14753 56.1695,-56.16945"
       style="fill:#46484a;fill-opacity:1;fill-rule:nonzero;stroke:none;stroke-width:0.12377578"
       id="path97" /><path
       d="m 195.02961,222.1153 c 31.85988,-15.23432 53.30899,-26.77022 66.53567,-33.09393 31.86112,-15.23432 15.12416,-43.05912 -8.38334,-32.98377 -13.06329,5.59467 -66.06161,30.18891 -73.43369,35.57687 -19.56895,14.30106 -2.17474,38.8458 15.28136,30.50083"
       style="fill:#c0c5c9;fill-opacity:1;fill-rule:nonzero;stroke:none;stroke-width:0.12377578"
       id="path99" /><path
       d="m 1381.069,223.24909 c 31.8598,-15.23309 53.2978,-26.76899 66.5294,-33.09393 31.8599,-15.23309 15.1254,-43.05417 -8.3796,-32.97882 -13.0707,5.59466 -66.0591,30.1852 -73.4362,35.57316 -19.5689,14.30105 -2.1784,38.84579 15.2864,30.49959"
       style="fill:#c0c5c9;fill-opacity:1;fill-rule:nonzero;stroke:none;stroke-width:0.12377578"
       id="path101" /><path
       d="m 271.50571,170.81024 c 0,-5.16764 -4.19105,-9.36364 -9.36116,-9.36364 -5.17135,0 -9.3624,4.196 -9.3624,9.36364 0,5.17012 4.19105,9.36116 9.3624,9.36116 5.17011,0 9.36116,-4.19104 9.36116,-9.36116"
       style="fill:#46484a;fill-opacity:1;fill-rule:nonzero;stroke:none;stroke-width:0.12377578"
       id="path103" /><path
       d="m 196.61022,204.85353 c 0,-5.17011 -4.19228,-9.3624 -9.3624,-9.3624 -5.17011,0 -9.3624,4.19229 -9.3624,9.3624 0,5.17012 4.19229,9.3624 9.3624,9.3624 5.17012,0 9.3624,-4.19228 9.3624,-9.3624"
       style="fill:#46484a;fill-opacity:1;fill-rule:nonzero;stroke:none;stroke-width:0.12377578"
       id="path105" /><path
       d="m 1457.5376,172.51216 c 0,-5.17383 -4.1836,-9.35745 -9.3574,-9.35745 -5.1738,0 -9.3698,4.18362 -9.3698,9.35745 0,5.17011 4.196,9.3624 9.3698,9.3624 5.1738,0 9.3574,-4.19229 9.3574,-9.3624"
       style="fill:#46484a;fill-opacity:1;fill-rule:nonzero;stroke:none;stroke-width:0.12377578"
       id="path107" /><path
       d="m 1382.6409,206.55545 c 0,-5.17012 -4.1836,-9.36116 -9.3574,-9.36116 -5.1739,0 -9.3575,4.19104 -9.3575,9.36116 0,5.17135 4.1836,9.3624 9.3575,9.3624 5.1738,0 9.3574,-4.19105 9.3574,-9.3624"
       style="fill:#46484a;fill-opacity:1;fill-rule:nonzero;stroke:none;stroke-width:0.12377578"
       id="path109" /><path
       d="m 1570.3593,451.52876 c -47.3319,-27.52278 -99.7509,-21.54317 -154.4722,-23.10894 -32.6521,-0.93327 -1384.625233,4.7728 -1407.6698078,25.66244 17.8719848,17.87198 55.6273118,70.31578 148.9356878,178.72108 19.6952,22.8812 1262.57112,7.65925 1293.20562,-5.10698 39.336,-16.39163 95.6168,-142.31121 120.0007,-176.1676"
       style="fill:#d0d7db;fill-opacity:1;fill-rule:nonzero;stroke:none;stroke-width:0.12377578"
       id="path111" /><path
       d="M 1567.6981,384.02021 H 10.869807 L 5.6637986,454.50805 H 1572.909 l -5.2109,-70.48784"
       style="fill:#c0c5c9;fill-opacity:1;fill-rule:nonzero;stroke:none;stroke-width:0.12377578"
       id="path113" /><path
       d="m 1422.2739,584.29314 c 5.0996,40.85096 0,137.87013 7.6617,145.52938 15.3111,5.10698 43.3958,7.66048 51.0575,5.10698 17.8733,-20.42548 107.2394,-135.31787 107.2394,-135.31787 2.5498,-22.97773 -15.3235,-219.57081 -17.8732,-224.67656 -5.112,-2.55349 -22.9852,0 -35.7465,0 0,28.08473 5.0996,84.25294 5.0996,84.25294 0,12.76623 -114.8887,117.44589 -117.4385,125.10513"
       style="fill:#c4cbcf;fill-opacity:1;fill-rule:nonzero;stroke:none;stroke-width:0.12377578"
       id="path115" /><path
       d="m 1541.8042,591.25058 c 4.1093,-3.56351 46.8739,4.28016 46.4283,8.36105 0,0 -89.3661,114.89239 -107.2394,135.31787 -7.6617,2.5535 -35.7464,0 -51.0575,-5.10698 -3.8989,-2.08686 86.3336,-116.44331 111.8686,-138.57194"
       style="fill:#d0d7db;fill-opacity:1;fill-rule:nonzero;stroke:none;stroke-width:0.12377578"
       id="path117" /><path
       d="m 1540.0961,594.65441 c 15.3234,5.10699 48.1364,4.95722 48.1364,4.95722 2.5498,-22.97773 -15.3235,-219.57081 -17.8732,-224.67656 -5.112,-2.55349 -21.7474,-4.9696 -35.7465,0 0,28.08473 5.0996,84.25294 5.0996,84.25294 0,12.76623 2.9335,104.82942 0.3837,135.4664"
       style="fill:#b5bbbf;fill-opacity:1;fill-rule:nonzero;stroke:none;stroke-width:0.12377578"
       id="path119" /><path
       d="m 1407.0247,704.61063 c 24.7923,-17.87199 130.8805,-172.96428 125.9171,-185.73051 -4.951,-12.76624 -1101.26156,16.90282 -1111.17848,16.90282 -9.91692,0 111.27938,194.38367 133.5912,202.04292 11.75994,4.03633 825.26888,-14.18099 851.67018,-33.21523"
       style="fill:#a7cfd1;fill-opacity:1;fill-rule:nonzero;stroke:none;stroke-width:0.12377578"
       id="path121" /><path
       d="M 47.393565,732.10247 C 44.715057,776.95757 168.778,906.7897 201.06491,893.68061 238.71874,891.8871 566.45349,747.9173 578.34958,727.60569 590.24691,707.29409 420.83624,538.32405 420.83624,538.32405 c 0,0 -355.955633,187.65399 -373.442675,193.77842"
       style="fill:#a7cfd1;fill-opacity:1;fill-rule:nonzero;stroke:none;stroke-width:0.12377578"
       id="path123" /><path
       d="m 416.06097,544.83342 c 12.06814,-4.16382 -13.093,-92.71425 -30.80284,-87.68276 C 367.54829,462.18338 72.142532,626.35463 63.373018,636.94364 54.603504,647.5339 30.54273,739.02648 50.683525,734.77726 70.82432,730.5268 405.26772,548.55907 416.06097,544.83342"
       style="fill:#91bdbf;fill-opacity:1;fill-rule:nonzero;stroke:none;stroke-width:0.12377578"
       id="path125" /><path
       d="m 92.337789,764.70005 c -9.078954,30.63204 119.832291,153.4696 145.817771,156.83506 30.45008,3.94473 172.24762,-54.18656 182.46655,-95.06599 5.46841,-21.87242 -80.88748,-153.73199 -107.29999,-164.54876 -20.33389,-8.32764 -206.8937,55.24608 -220.984331,102.77969"
       style="fill:#c1ebe2;fill-opacity:1;fill-rule:nonzero;stroke:none;stroke-width:0.12377578"
       id="path127" /><path
       d="M 92.337789,764.69882 C 118.70822,807.2913 305.35591,718.44628 313.32212,661.92036 292.98947,653.59272 106.42719,717.16644 92.337789,764.69882"
       style="fill:#aae3d7;fill-opacity:1;fill-rule:nonzero;stroke:none;stroke-width:0.12377578"
       id="path129" /><path
       d="M 557.90925,740.38059 C 537.45902,723.63992 423.62614,562.52717 423.96529,534.51052 c 0.0334,-2.74163 3.95216,-2.6488 4.18981,0 3.55855,39.81001 131.44617,203.94164 131.56871,204.11122 0.73027,1.02362 -0.9766,2.44457 -1.81456,1.75885"
       style="fill:#74b0b3;fill-opacity:1;fill-rule:nonzero;stroke:none;stroke-width:0.12377578"
       id="path131" /><path
       d="m 423.89103,538.33643 c 17.11819,12.59171 1095.94297,2.68841 1108.33287,-10.07659 12.39,-12.76623 12.39,-63.82869 0,-76.59492 -12.3899,-12.76624 -1100.89519,-12.90115 -1115.77056,4.97083 -10.20408,12.25999 -9.91568,68.93445 7.43769,81.70068"
       style="fill:#91bdbf;fill-opacity:1;fill-rule:nonzero;stroke:none;stroke-width:0.12377578"
       id="path133" /><path
       d="m 470.60029,541.60287 c -8.02067,1.77123 -42.21002,1.33183 -43.15938,0.67087 -8.16425,-5.68874 -10.87617,-15.03133 -14.50775,-23.76743 -3.6811,-8.85368 -4.94608,-22.52719 -3.14515,-31.76334 0.078,-0.40227 0.66592,-0.35895 0.76989,0 2.41115,8.39448 1.87644,17.35584 4.23065,25.7565 2.35174,8.39076 7.19261,18.2297 12.97418,24.84799 4.31111,3.44716 20.42548,3.40507 33.47516,3.40507 5.95857,0 9.8736,0.73771 9.3624,0.85034"
       style="fill:#74b0b3;fill-opacity:1;fill-rule:nonzero;stroke:none;stroke-width:0.12377578"
       id="path135" /><path
       d="m 339.38435,817.57831 c -10.77963,-9.68051 -65.12463,-15.04247 -76.60731,-23.87759 22.31678,-14.96573 63.31255,-36.65743 85.13917,-52.29032 2.45448,-1.75761 -13.35664,-24.03973 -10.91207,-25.81467 9.1953,-0.92956 138.01,-14.44464 147.54568,0.32677 10.31548,15.97821 -77.22123,81.63755 -83.33328,90.33527 -5.48451,-2.04353 -13.98295,-16.33716 -16.5513,-14.84814 -19.96132,11.57304 -25.45572,14.8073 -45.28089,26.16868"
       style="fill:#ffb191;fill-opacity:1;fill-rule:nonzero;stroke:none;stroke-width:0.12377578"
       id="path137" /><path
       d="m 347.83328,782.1772 c 8.55415,4.74927 15.36182,11.04079 20.8488,18.50695 -9.11238,5.2877 -15.98936,9.26709 -29.29773,16.89416 -10.77963,-9.68051 -53.20007,-26.99674 -76.60731,-23.87759 8.56405,-5.7432 19.87963,-12.47784 31.80666,-19.47859 18.32996,-0.32058 36.51015,-1.33678 53.24958,7.95507"
       style="fill:#ed9774;fill-opacity:1;fill-rule:nonzero;stroke:none;stroke-width:0.12377578"
       id="path139" /><path
       d="m 277.14617,920.75904 c 30.94519,-10.15581 88.42294,-54.09002 93.14252,-77.71758 2.31584,-11.59408 -6.80272,-30.84492 -13.48414,-38.31603 -9.59757,-10.7326 -19.25951,-15.69972 -32.7981,-18.06384 -39.60207,-6.91288 -73.75304,6.1628 -99.19887,23.1993 -39.89664,26.71205 -40.73461,53.27062 -19.57885,87.32876 15.44969,24.87151 43.21755,32.98872 71.91744,23.56939"
       style="fill:#ffb191;fill-opacity:1;fill-rule:nonzero;stroke:none;stroke-width:0.12377578"
       id="path141" /><path
       d="m 273.42176,836.73632 c 1.94452,0.23022 3.09934,-0.0161 6.63438,2.96815 5.82736,4.92256 2.10666,10.6868 2.69584,11.39851 0.66096,0.79835 1.1016,0.34781 1.3801,-0.23023 0.95555,-1.98784 2.54359,-4.07222 0.44188,-9.33393 -2.00517,-5.02529 -6.6678,-6.87822 -9.62233,-6.98838 -2.17598,-0.0817 -3.39641,1.96556 -1.52987,2.18588"
       style="fill:#c97553;fill-opacity:1;fill-rule:nonzero;stroke:none;stroke-width:0.12377578"
       id="path143" /><path
       d="m 299.85779,888.26047 c 0.81568,-1.7799 1.62765,-2.63767 0.91718,-7.20871 -1.16968,-7.53794 -8.02934,-7.36094 -8.33011,-8.23356 -0.33791,-0.9803 0.27726,-1.12265 0.9147,-1.05952 2.19455,0.21784 4.80126,-0.052 8.20139,4.47944 3.24663,4.32721 2.40372,9.27329 0.9605,11.85401 -1.06324,1.89996 -3.44592,1.87768 -2.66366,0.16834"
       style="fill:#c97553;fill-opacity:1;fill-rule:nonzero;stroke:none;stroke-width:0.12377578"
       id="path145" /><path
       d="m 250.33634,866.26799 c -5.89668,-8.88339 -6.06006,-23.77114 -0.005,-32.66567 0.80702,-1.18577 2.4619,-1.03972 3.34813,-0.0743 2.30966,2.51884 1.75267,7.15424 2.25272,10.32662 0.88376,5.61075 2.30718,10.95044 5.00673,15.92375 3.37784,6.22592 -6.68142,12.39862 -10.60263,6.48957"
       style="fill:#f7ebdc;fill-opacity:1;fill-rule:nonzero;stroke:none;stroke-width:0.12377578"
       id="path147" /><path
       d="m 274.59392,904.94668 c -5.50555,-3.03374 -10.46896,-9.16312 -13.52746,-14.88899 -1.7242,-3.22683 -0.0173,-7.30648 2.71935,-8.49597 3.23179,-1.40609 6.23583,0.64982 8.06771,3.80487 2.3307,4.01405 5.06986,8.08379 7.73722,11.86391 1.20806,1.71305 6.67399,5.01787 5.53278,7.66543 -1.75514,4.07346 -7.47358,1.7341 -10.5296,0.0507"
       style="fill:#f7ebdc;fill-opacity:1;fill-rule:nonzero;stroke:none;stroke-width:0.12377578"
       id="path149" /><path
       d="m 338.62189,856.55778 c -3.61797,-5.03644 -6.07492,-11.35024 -9.04058,-16.85331 -2.47181,-4.58837 -5.25429,-9.70774 -5.16517,-15.02762 0.0285,-1.7143 2.34927,-2.47304 3.04613,-0.70676 2.1277,5.39291 3.64024,10.7425 6.28409,15.97698 2.47304,4.89533 6.23954,10.48752 6.21107,16.10446 -0.002,0.69686 -0.87386,1.14988 -1.33554,0.50625"
       style="fill:#c97553;fill-opacity:1;fill-rule:nonzero;stroke:none;stroke-width:0.12377578"
       id="path151" /><path
       d="m 273.83888,857.22493 c -0.2624,0.0545 -0.43445,-0.22156 -0.41836,-0.44436 0.15843,-2.27005 1.53853,-4.0846 1.35039,-6.50565 -0.25621,-3.29987 -2.44209,-4.25294 -5.39909,-4.47202 -2.0027,-0.14853 -1.82446,-3.26892 0.10397,-3.44468 3.84571,-0.35153 7.47358,2.00021 8.22985,5.89173 0.54956,2.83075 -0.48025,8.27564 -3.86676,8.97498"
       style="fill:#171b1c;fill-opacity:1;fill-rule:nonzero;stroke:none;stroke-width:0.12377578"
       id="path153" /><path
       d="m 290.07827,887.93741 c -0.0644,-2.09428 0.89737,-3.93978 0.7377,-6.08977 -0.2327,-3.13152 -3.43354,-4.02642 -5.69864,-5.30626 -0.59041,-0.33296 -0.49015,-1.17464 0.20671,-1.28975 3.08944,-0.51491 6.54031,1.14493 7.95754,3.97939 1.3603,2.71812 1.52121,7.15672 -0.74636,9.43543 -0.76989,0.77484 -2.41487,0.6164 -2.45695,-0.72904"
       style="fill:#171b1c;fill-opacity:1;fill-rule:nonzero;stroke:none;stroke-width:0.12377578"
       id="path155" /><path
       d="m 343.34394,842.9313 c -3.09564,-1.65364 -5.66398,-8.10236 -4.0549,-11.36262 0.34038,-0.69067 1.2687,-0.40846 1.49397,0.19557 0.63869,1.72667 0.531,3.57217 1.30336,5.32236 0.74885,1.6982 2.05963,2.98918 2.70574,4.73071 0.31934,0.86271 -0.74637,1.48902 -1.44817,1.11398"
       style="fill:#c97553;fill-opacity:1;fill-rule:nonzero;stroke:none;stroke-width:0.12377578"
       id="path157" /><path
       d="m 255.34431,907.56082 c -9.06658,-14.28248 -17.77421,-22.92451 -24.42097,-52.23461 -0.39732,-1.75267 0.87634,-2.78743 1.95814,-0.26241 3.84571,8.97003 5.79889,18.22722 9.97137,27.06605 4.07347,8.62346 9.42553,14.8828 13.92354,23.21786 1.12389,2.08439 -0.16833,4.20467 -1.43208,2.21311"
       style="fill:#c97553;fill-opacity:1;fill-rule:nonzero;stroke:none;stroke-width:0.12377578"
       id="path159" /><path
       d="m 251.90829,889.23706 c -1.73657,-2.44705 -9.69907,-18.22475 -6.72845,-17.85095 2.1277,0.26736 8.82397,14.10054 9.45894,16.69983 0.41837,1.71306 -1.76999,2.50399 -2.73049,1.15112"
       style="fill:#c97553;fill-opacity:1;fill-rule:nonzero;stroke:none;stroke-width:0.12377578"
       id="path161" /><path
       d="m 314.29624,867.53669 c -4.56981,-0.12873 -27.99809,-1.1078 -33.88858,-2.68346 -0.71913,-0.19185 -0.5409,-1.2291 0.17081,-1.26128 3.20085,-0.14729 9.70155,0.0272 16.20721,0.20052 7.73969,0.20671 15.48682,0.41341 17.69374,0.0804 6.60344,-0.99763 0.81073,-10.90712 0.14235,-14.22926 -0.5409,-2.68965 3.06345,-3.60435 4.04375,-1.11398 2.81961,7.16909 6.27296,19.31026 -4.36928,19.00701"
       style="fill:#c97553;fill-opacity:1;fill-rule:nonzero;stroke:none;stroke-width:0.12377578"
       id="path163" /><path
       d="m 221.47925,969.22721 c 3.55979,-10.50362 2.88645,-24.60292 -0.40722,-32.1421 -4.32844,6.13061 -12.62265,11.90104 -24.91978,9.31289 16.86445,-18.45007 -19.56152,-37.1662 -23.04705,-69.90242 -4.15639,-39.04136 38.90521,-85.96971 71.70084,-83.27635 -13.79481,14.3679 -24.02612,32.6273 -26.63284,52.37449 -9.63471,72.98439 72.08083,62.87438 43.45149,117.8742 -1.88882,3.6291 -4.03262,7.19385 -6.98467,10.02707 -1.11027,-10.08277 -5.07728,-18.0168 -11.2079,-25.23045 -2.1636,7.57384 -6.85222,16.95109 -21.95287,20.96267"
       style="fill:#f7ebdc;fill-opacity:1;fill-rule:nonzero;stroke:none;stroke-width:0.12377578"
       id="path165" /><path
       d="m 261.64573,875.51404 c -0.50996,2.13142 -2.10666,3.51399 -3.2652,5.27161 -0.28469,0.43321 -0.82435,0.72409 -1.34916,0.54956 -0.21413,-0.0706 -0.35895,-0.15596 -0.52728,-0.30696 -0.38123,-0.34162 -0.46788,-1.01991 -0.18691,-1.44818 0.79836,-1.21053 1.96185,-2.27376 2.70203,-3.54494 -0.57927,-0.10768 -1.15978,-0.21289 -1.73534,-0.33791 -0.90727,-0.19556 -1.89005,-0.20299 -2.71564,-0.63868 -0.35028,-0.18442 -0.38494,-0.79835 0,-0.97288 1.81084,-0.81815 4.40642,-0.18442 6.30885,0.0755 0.60898,0.0829 0.89366,0.83053 0.76865,1.35287"
       style="fill:#c97553;fill-opacity:1;fill-rule:nonzero;stroke:none;stroke-width:0.12377578"
       id="path167" /><path
       d="m 326.75922,845.21249 c -0.7736,0.23765 -1.52739,0.54585 -2.28243,0.83672 -0.40722,0.1572 -0.82929,0.24384 -1.23157,0.42455 -0.36513,0.16462 -0.66343,0.30449 -1.07189,0.2686 -0.26984,-0.0235 -0.57185,-0.22899 -0.5409,-0.5409 0.099,-0.9766 1.00629,-1.56701 1.73657,-2.11781 0.87262,-0.65725 2.0782,-0.77855 3.13276,-0.77483 1.11151,0.004 1.29594,1.58433 0.25746,1.90367"
       style="fill:#c97553;fill-opacity:1;fill-rule:nonzero;stroke:none;stroke-width:0.12377578"
       id="path169" /><path
       d="m 328.27547,805.65994 c -2.92111,3.45458 -7.19508,5.80756 -10.86627,8.39447 -4.07223,2.86912 -8.12588,5.80385 -12.31941,8.49226 -0.44064,0.28344 -0.89737,-0.34658 -0.54709,-0.708 3.47687,-3.57217 7.38818,-6.73464 11.2834,-9.83646 3.51276,-2.79734 6.97724,-6.21602 11.05689,-8.14692 1.19692,-0.56814 2.25025,0.79092 1.39248,1.80465"
       style="fill:#c97553;fill-opacity:1;fill-rule:nonzero;stroke:none;stroke-width:0.12377578"
       id="path171" /><path
       d="m 351.58245,861.5806 c -3.27387,2.0522 -7.3102,2.78867 -11.00985,3.78382 -4.21828,1.13379 -8.3623,2.48666 -12.54468,3.74174 -0.35895,0.10769 -0.52852,-0.38246 -0.2426,-0.57679 3.30234,-2.25396 6.87698,-3.53009 10.64719,-4.79631 4.04995,-1.3603 8.15806,-3.19961 12.2996,-4.17125 1.22538,-0.28716 1.92348,1.34792 0.85034,2.01879"
       style="fill:#c97553;fill-opacity:1;fill-rule:nonzero;stroke:none;stroke-width:0.12377578"
       id="path173" /><path
       d="m 615.20011,750.23438 c -10.90093,5.8744 -23.68697,6.71236 -35.90116,8.74847 -24.65738,4.10936 -48.0869,13.46928 -71.29238,22.76484 3.88037,11.13611 9.54806,21.64839 16.7184,31.01203 35.00255,-14.8432 66.69781,-29.00438 100.89954,-32.87857 -3.691,-13.0472 -5.49317,-17.01669 -10.4244,-29.64677"
       style="fill:#ffb191;fill-opacity:1;fill-rule:nonzero;stroke:none;stroke-width:0.12377578"
       id="path175" /><path
       d="m 410.19771,824.12109 c 40.87571,30.46122 116.17224,-9.95281 129.59572,-17.14418 -8.20757,-17.53036 -12.46422,-29.51805 -20.67179,-47.04965 -29.10093,12.25999 -106.03872,59.38515 -108.92393,64.19383"
       style="fill:#ffffff;fill-opacity:1;fill-rule:nonzero;stroke:none;stroke-width:0.12377578"
       id="path177" /><path
       d="m 344.32176,734.84781 c 51.45236,-3.3667 74.53407,34.62133 43.27821,58.66477 5.03024,4.26655 16.0859,30.08618 24.52369,31.73735 3.53628,0.69191 57.38988,-11.03585 81.744,-19.40185 13.75273,-4.72453 21.80558,-15.5153 37.50778,-24.5237 29.33238,-16.83103 52.32373,-20.92182 87.01313,-36.29601 -3.54246,-12.67216 -36.0794,-120.29644 -47.68585,-126.19807 -7.19138,-3.65758 -74.67641,2.13389 -137.19679,33.28207 -17.49695,8.71629 -30.70877,2.69955 -104.57197,46.67089 2.1438,10.9851 10.3427,26.07213 15.3878,36.06455"
       style="fill:#ffffff;fill-opacity:1;fill-rule:nonzero;stroke:none;stroke-width:0.12377578"
       id="path179" /><path
       d="m 424.62378,666.39733 c -6.72845,-11.49753 -14.9385,-30.04781 -18.53047,-42.87593 45.33411,-26.29864 99.8066,-30.13198 152.11796,-33.34025 4.35443,12.26247 7.67781,24.89008 9.92434,37.70706 -49.33084,8.2806 -95.27765,25.26016 -143.51183,38.50912"
       style="fill:#ffb191;fill-opacity:1;fill-rule:nonzero;stroke:none;stroke-width:0.12377578"
       id="path181" /><path
       d="m 442.47225,657.64143 c -1.88635,8.68659 -82.20693,64.32009 -110.65308,51.23946 -9.5394,-20.41186 -10.7722,-40.44745 -3.36546,-51.45235 30.56395,-45.40839 70.05709,-54.47249 82.22796,-60.58949 7.5986,9.45028 32.91075,55.64464 31.79058,60.80238"
       style="fill:#ffffff;fill-opacity:1;fill-rule:nonzero;stroke:none;stroke-width:0.12377578"
       id="path183" /><path
       d="m 386.94024,678.64494 c 13.59677,-7.70009 47.95569,-27.7431 53.20502,-30.63327 -8.07266,-17.59596 -13.87031,-36.24278 -22.80445,-53.41048 1.33678,-0.28221 2.67108,-0.57432 4.00415,-0.87015 8.94899,17.57616 14.81101,36.5708 23.29584,54.40441 1.76133,3.70337 -39.75678,23.06562 -57.70056,30.50949"
       style="fill:#dedede;fill-opacity:1;fill-rule:nonzero;stroke:none;stroke-width:0.12377578"
       id="path185" /><path
       d="m 517.49522,817.86547 c -6.34722,4.63787 -14.31838,7.32133 -21.60382,10.17065 -8.99479,3.51647 -18.24703,6.30514 -27.72083,8.17911 -15.82844,3.13029 -35.37264,2.95824 -49.11794,-6.63191 10.92321,3.84076 16.70973,5.6875 25.52999,6.18508 8.45636,0.47653 15.58461,-0.48521 23.80209,-2.34432 7.85357,-1.77618 17.53531,-4.72328 25.00518,-7.6939 7.8709,-3.12905 18.0923,-7.45254 22.54204,-11.57304 1.78609,-1.65364 3.3469,2.40497 1.56329,3.70833"
       style="fill:#dedede;fill-opacity:1;fill-rule:nonzero;stroke:none;stroke-width:0.12377578"
       id="path187" /><path
       d="m 515.2128,781.67095 c 1.22538,3.91255 -42.59373,17.27291 -61.40269,22.12987 14.53994,-5.72091 51.36571,-20.75596 56.9678,-22.88366 -0.24755,-0.8293 4.20714,0.0297 4.43489,0.75379"
       style="fill:#dedede;fill-opacity:1;fill-rule:nonzero;stroke:none;stroke-width:0.12377578"
       id="path189" /><path
       d="m 919.91257,892.79066 -4.3272,-154.74448 H 1080.7641 V 905.38732 L 919.91257,892.79066"
       style="fill:#b5bbbf;fill-opacity:1;fill-rule:nonzero;stroke:none;stroke-width:0.12377578"
       id="path191" /><path
       d="m 1047.0228,902.70015 c 0.2352,-54.88713 0.099,-109.77179 -0.2475,-164.65397 h 33.9888 v 167.3399 l -33.7413,-2.68593"
       style="fill:#a2a7ab;fill-opacity:1;fill-rule:nonzero;stroke:none;stroke-width:0.12377578"
       id="path193" /><path
       d="m 925.72384,957.97227 c 9.92187,2.66737 72.02509,2.05221 119.68996,1.43704 29.7928,-0.38494 53.9538,-0.76988 56.2065,-0.35276 7.3276,-6.5007 2.9335,-73.66892 -7.3275,-80.16962 -10.261,-6.50071 -143.65042,-6.50071 -156.84244,0 -13.19203,6.5007 -17.58978,71.50284 -11.72652,79.08534"
       style="fill:#b5bbbf;fill-opacity:1;fill-rule:nonzero;stroke:none;stroke-width:0.12377578"
       id="path195" /><path
       d="m 895.38887,956.88924 c 9.76467,2.66736 70.88392,2.0522 117.79863,1.43703 29.3175,-0.38494 53.0948,-0.76988 55.3104,-0.354 7.2162,-6.49946 3.8495,-74.22467 -10.1001,-81.43708 -10.6571,-5.51793 -138.48523,-5.23201 -151.46808,1.2687 -12.98284,6.49946 -17.31128,71.5016 -11.54085,79.08535"
       style="fill:#c4cbcf;fill-opacity:1;fill-rule:nonzero;stroke:none;stroke-width:0.12377578"
       id="path197" /><path
       d="m 1051.5159,1149.1848 c 6.0526,-4.3284 59.858,-4.2009 75.6518,-12.9841 18.1455,-10.0976 9.5307,-176.06483 -3.0326,-181.76594 -31.7732,-14.42607 -239.58527,-8.94156 -254.7082,4.36929 -11.15962,9.82284 -19.19391,102.73395 2.05468,173.06945 5.84098,19.3326 148.90842,16.9598 180.03432,17.3113"
       style="fill:#c4cbcf;fill-opacity:1;fill-rule:nonzero;stroke:none;stroke-width:0.12377578"
       id="path199" /><path
       d="m 860.76631,1139.086 c 21.70161,15.7838 215.18289,18.9711 232.25159,0 12.9841,-14.4261 11.5483,-177.43882 -8.6519,-188.97968 -13.9991,-8.00086 -201.95997,-14.42483 -222.15647,7.21366 -17.41401,18.65791 -17.31128,170.22512 -1.44322,181.76602"
       style="fill:#d0d7db;fill-opacity:1;fill-rule:nonzero;stroke:none;stroke-width:0.12377578"
       id="path201" /><path
       d="m 877.47975,1125.108 c 17.78287,11.7364 180.07645,13.9111 194.86765,0.4913 12.984,-11.7822 15.868,-123.064 -1.4482,-136.15581 -16.0661,-12.1511 -175.68857,-15.59202 -192.23739,0.4988 -14.26887,13.87411 -14.1847,126.58301 -1.18206,135.16571"
       style="fill:#367599;fill-opacity:1;fill-rule:nonzero;stroke:none;stroke-width:0.12377578"
       id="path203" /><path
       d="m 882.92341,1121.3192 c 16.7939,11.0841 170.06539,13.1388 184.03969,0.4641 12.2538,-11.1274 14.9893,-116.2242 -1.3615,-128.58941 -15.1749,-11.474 -165.9338,-14.7243 -181.56173,0.4716 -13.47671,13.10411 -13.39625,119.54881 -1.11646,127.65371"
       style="fill:#4b8eb3;fill-opacity:1;fill-rule:nonzero;stroke:none;stroke-width:0.12377578"
       id="path205" /><path
       d="m 1043.2972,976.77749 c 1.8071,0.3021 11.4616,-0.302 12.6622,-0.302 7.5504,-6.33358 5.4338,-17.49568 -1.2006,-20.81411 -2.4136,-0.60279 -12.9717,1.20681 -12.9717,1.20681 -0.6065,1.50883 1.5101,19.3066 1.5101,19.9093"
       style="fill:#a2a7ab;fill-opacity:1;fill-rule:nonzero;stroke:none;stroke-width:0.12377578"
       id="path207" /><path
       d="m 1054.1523,966.82348 c 0,-5.49812 -4.8644,-9.95529 -10.8551,-9.95529 -6.0031,0 -10.8613,4.45717 -10.8613,9.95529 0,5.49688 4.8582,9.95401 10.8613,9.95401 5.9907,0 10.8551,-4.45713 10.8551,-9.95401"
       style="fill:#b5bbbf;fill-opacity:1;fill-rule:nonzero;stroke:none;stroke-width:0.12377578"
       id="path209" /><path
       d="m 904.52476,972.70778 c 4.3074,0.43074 20.07643,-0.84167 24.40487,-1.32316 4.3272,-0.48025 3.60559,-10.33776 -0.72161,-10.81924 -4.32844,-0.48025 -21.2783,0.12006 -24.16351,1.56328 -2.88521,1.44199 -4.32844,10.09763 0.48025,10.57912"
       style="fill:#b5bbbf;fill-opacity:1;fill-rule:nonzero;stroke:none;stroke-width:0.12377578"
       id="path211" /><path
       d="m 944.12435,970.16295 c 4.27769,0.65601 20.12965,0.0334 24.47666,-0.22032 4.347,-0.25374 3.21445,-10.47267 -1.0818,-11.18067 -4.2975,-0.70676 -20.36359,-0.47777 -23.3206,0.81197 -2.957,1.28975 -4.85201,9.85751 -0.0743,10.58902"
       style="fill:#b5bbbf;fill-opacity:1;fill-rule:nonzero;stroke:none;stroke-width:0.12377578"
       id="path213" /><path
       d="m 984.87133,970.36842 c 4.2616,0.75379 19.76947,0.4493 24.12137,0.29582 4.352,-0.15472 3.1972,-10.37488 -1.0818,-11.18066 -4.2789,-0.80455 -19.73723,-0.92213 -22.72394,0.29953 -2.98547,1.22167 -5.0748,9.74363 -0.31563,10.58531"
       style="fill:#b5bbbf;fill-opacity:1;fill-rule:nonzero;stroke:none;stroke-width:0.12377578"
       id="path215" /><path
       d="m 917.50884,927.50605 c 7.31267,2.43839 125.52846,3.82839 129.11796,1.44323 5.7679,-3.84695 1.6709,-35.10405 -3.1316,-38.951 -4.8149,-3.84572 -118.77394,-5.38177 -123.58263,-0.48025 -4.80869,4.90152 -6.73217,36.54604 -2.40373,37.98802"
       style="fill:#4b8eb3;fill-opacity:1;fill-rule:nonzero;stroke:none;stroke-width:0.12377578"
       id="path217" /><path
       d="m 943.47576,915.00346 c 1.77247,2.21683 25.61045,1.3603 26.92742,0.48149 2.12523,-1.41723 2.25148,-18.29901 0.48149,-19.71624 -1.77123,-1.416 -25.15743,-2.28491 -26.92866,-0.48025 -1.76999,1.80465 -2.40372,17.31128 -0.48025,19.715"
       style="fill:#417b9c;fill-opacity:1;fill-rule:nonzero;stroke:none;stroke-width:0.12377578"
       id="path219" /><path
       d="m 980.50205,915.00346 c 1.77371,2.21683 25.61045,1.3603 26.92865,0.48149 2.124,-1.41723 2.2515,-18.29901 0.4802,-19.71624 -1.77,-1.416 -25.15737,-2.28491 -26.9286,-0.48025 -1.76999,1.80465 -2.40373,17.31128 -0.48025,19.715"
       style="fill:#417b9c;fill-opacity:1;fill-rule:nonzero;stroke:none;stroke-width:0.12377578"
       id="path221" /><path
       d="m 992.76452,912.35961 c 14.53368,0.68448 12.50128,-15.62917 0.12006,-15.62917 -10.75488,0 -12.86402,15.02762 -0.12006,15.62917"
       style="fill:#366782;fill-opacity:1;fill-rule:nonzero;stroke:none;stroke-width:0.12377578"
       id="path223" /><path
       d="m 955.85705,911.51794 c 14.53499,0.68571 12.50259,-15.62793 0.12007,-15.62793 -10.75241,0 -12.86278,15.02638 -0.12007,15.62793"
       style="fill:#366782;fill-opacity:1;fill-rule:nonzero;stroke:none;stroke-width:0.12377578"
       id="path225" /><path
       d="m 1109.3687,836.1422 c -4.2579,14.77511 -23.505,20.272 -37.9868,20.67674 -9.3079,0.26117 -9.2089,-13.27371 0,-14.42483 19.2348,-2.40496 30.7459,-10.05554 18.5045,-18.51562 -3.1192,-2.15122 -64.0206,-1.06199 -90.19787,-0.91099 -25.54484,0.14606 -51.08969,0.37381 -76.6333,0.51615 -0.91594,0.005 -2.17721,-0.0285 -3.66871,-0.0631 -9.14579,-0.20918 -26.96455,-0.41836 -27.02768,8.40562 -0.026,3.66871 6.51432,6.80395 9.06905,8.16301 5.40777,2.87902 11.02842,4.56733 17.04269,5.5303 0.27726,0.0446 0.5409,14.42607 0.5409,14.42607 -19.95761,-1.13503 -48.90134,-14.75531 -38.74553,-37.62413 5.37434,-12.10403 23.07799,-12.49887 34.20791,-13.05463 7.85481,-0.39113 15.7517,-0.36142 23.63746,-0.33172 3.7962,0.0149 7.58869,0.0285 11.37376,-0.005 28.58478,-0.24755 57.17202,-0.50376 85.75432,-0.50253 5.8546,0 11.6225,-0.26488 17.341,-0.52976 13.0336,-0.60402 25.8691,-1.20681 39.0017,1.31574 16.029,3.08078 20.3859,17.9413 17.7866,26.92866"
       style="fill:#d0d7db;fill-opacity:1;fill-rule:nonzero;stroke:none;stroke-width:0.12377578"
       id="path227" /><path
       d="m 912.33378,1084.3201 c 1.41351,3.0164 6.78291,18.0701 11.40965,13.2601 2.74039,-2.8468 3.96701,-7.1171 6.4809,-10.2177 5.81375,-7.1691 11.77231,2.1141 14.36665,6.8733 1.10037,2.0188 5.13051,10.2808 8.46131,5.1652 1.33431,-2.051 1.97299,-4.6825 2.91245,-6.9377 1.08923,-2.6166 3.0226,-6.0724 6.09348,-6.7655 8.60984,-1.9446 11.89238,9.6272 17.61082,13.64 5.53401,3.8841 8.4217,-7.4958 10.97272,-10.23 2.26015,-2.4223 4.74804,-3.5413 8.04047,-2.9013 7.80777,1.5199 13.71187,23.5681 21.66697,9.428 3.2466,-5.7692 7.2804,-13.27 14.8159,-8.121 3.738,2.5486 5.9413,7.2224 9.1347,10.3551 5.7803,5.6801 9.5555,-7.5837 11.3378,-11.3849 0.9902,-2.1042 4.097,-0.2723 3.1192,1.8195 -2.983,6.3683 -6.424,18.8907 -15.5463,13.2861 -4.6044,-2.8357 -6.4487,-8.6321 -10.9058,-11.6745 -5.3286,-3.639 -8.7634,8.5739 -11.2141,11.1361 -6.8733,7.1815 -13.8295,-0.5186 -18.122,-6.2965 -2.025,-2.7255 -4.92377,-7.1319 -8.89825,-4.0388 -2.2391,1.744 -3.36546,5.3323 -4.67996,7.7546 -1.84674,3.4038 -4.60199,5.352 -8.52692,5.0537 -8.26698,-0.6312 -15.60936,-24.0558 -21.95534,-8.8215 -2.63024,6.3151 -6.49823,14.4113 -13.77253,7.0293 -2.69955,-2.7392 -7.40427,-16.7754 -12.36025,-11.8181 -3.07707,3.0758 -4.11679,7.7607 -7.17405,10.938 -7.53794,7.8326 -14.48672,-10.6657 -16.38172,-14.712 -0.98031,-2.093 2.1277,-3.9249 3.1142,-1.8195"
       style="fill:#a3d5f0;fill-opacity:1;fill-rule:nonzero;stroke:none;stroke-width:0.12377578"
       id="path229" /><path
       d="m 1062.0863,1055.7292 c -3.9979,3.6724 -7.7607,5.1688 -12.9717,2.9805 -4.4311,-1.8678 -6.5353,-2.8617 -11.5606,-0.8442 -2.7602,1.1041 -5.5835,2.2354 -8.6148,1.7416 -2.4718,-0.4023 -4.6292,-1.2267 -6.8956,-2.2478 -5.2456,-2.3641 -7.6753,-2.0262 -13.0224,0.1795 -6.9488,2.8666 -13.03975,-1.041 -19.77563,-2.7565 -5.04139,-1.2848 -8.60365,2.2341 -12.7947,4.0846 -2.44086,1.0781 -4.96341,0.76 -7.48472,0.2847 -5.3694,-1.0113 -8.83388,-4.347 -14.80111,-2.9063 -3.33823,0.8058 -6.34103,2.7416 -9.82409,3.0498 -6.54031,0.5781 -10.59396,-4.0623 -17.44372,-1.6598 -6.77424,2.3765 -9.64461,0.1547 -15.58832,-3.0659 -2.04477,-1.1091 -0.22403,-4.2233 1.82074,-3.1142 3.59445,1.947 6.117,4.4782 10.54446,3.5103 2.8617,-0.6251 5.27285,-1.8926 8.24347,-2.1253 5.17506,-0.4047 8.48978,3.6725 14.00275,2.4607 6.02293,-1.3244 9.94044,-3.9447 16.29756,-2.6327 5.16021,1.0645 8.07637,4.9993 14.13148,2.3257 3.26149,-1.4395 5.43252,-3.3382 9.0443,-3.9645 5.43004,-0.9419 11.01606,2.5622 16.11433,3.8544 4.4275,1.1214 7.7756,-1.8072 11.6943,-3.0449 2.3406,-0.739 5.0315,0.082 7.2224,0.8677 2.6413,0.9468 5.0451,2.3492 7.757,3.1426 4.2492,1.244 8.7287,-1.7564 12.6152,-2.952 7.736,-2.379 10.6942,7.6864 18.7397,0.2822 1.7081,-1.572 4.2579,0.9716 2.5497,2.5498"
       style="fill:#a3d5f0;fill-opacity:1;fill-rule:nonzero;stroke:none;stroke-width:0.12377578"
       id="path231" /><path
       d="m 920.39405,1018.7499 c -1.60289,0 -3.20579,0 -4.80868,0 -2.32575,0 -2.32575,-3.6056 0,-3.6056 1.60289,0 3.20579,0 4.80868,0 2.32575,0 2.32575,3.6056 0,3.6056"
       style="fill:#a3d5f0;fill-opacity:1;fill-rule:nonzero;stroke:none;stroke-width:0.12377578"
       id="path233" /><path
       d="m 936.98372,1018.7499 c -1.60289,0 -3.20579,0 -4.80869,0 -2.32574,0 -2.32574,-3.6056 0,-3.6056 1.6029,0 3.2058,0 4.80869,0 2.32575,0 2.32575,3.6056 0,3.6056"
       style="fill:#a3d5f0;fill-opacity:1;fill-rule:nonzero;stroke:none;stroke-width:0.12377578"
       id="path235" /><path
       d="m 955.97835,1018.7499 c -2.08438,0 -4.16753,0 -6.25191,0 -2.32575,0 -2.32575,-3.6056 0,-3.6056 2.08438,0 4.16753,0 6.25191,0 2.32575,0 2.32575,3.6056 0,3.6056"
       style="fill:#a3d5f0;fill-opacity:1;fill-rule:nonzero;stroke:none;stroke-width:0.12377578"
       id="path237" /><path
       d="m 974.73162,1018.9913 c -2.08314,0 -4.16753,0 -6.25067,0 -2.32699,0 -2.32699,-3.6069 0,-3.6069 2.08314,0 4.16753,0 6.25067,0 2.32575,0 2.32575,3.6069 0,3.6069"
       style="fill:#a3d5f0;fill-opacity:1;fill-rule:nonzero;stroke:none;stroke-width:0.12377578"
       id="path239" /><path
       d="m 991.56142,1018.7499 c -1.6029,0 -3.2058,0 -4.80746,0 -2.32698,0 -2.32698,-3.6056 0,-3.6056 1.60166,0 3.20456,0 4.80746,0 2.32574,0 2.32574,3.6056 0,3.6056"
       style="fill:#a3d5f0;fill-opacity:1;fill-rule:nonzero;stroke:none;stroke-width:0.12377578"
       id="path241" /><path
       d="m 1008.1511,1018.7499 c -1.6029,0 -3.2058,0 -4.8075,0 -2.327,0 -2.327,-3.6056 0,-3.6056 1.6017,0 3.2046,0 4.8075,0 2.3257,0 2.3257,3.6056 0,3.6056"
       style="fill:#a3d5f0;fill-opacity:1;fill-rule:nonzero;stroke:none;stroke-width:0.12377578"
       id="path243" /><path
       d="m 1027.1457,1018.7499 c -2.0832,0 -4.1675,0 -6.2507,0 -2.327,0 -2.327,-3.6056 0,-3.6056 2.0832,0 4.1675,0 6.2507,0 2.3257,0 2.3257,3.6056 0,3.6056"
       style="fill:#a3d5f0;fill-opacity:1;fill-rule:nonzero;stroke:none;stroke-width:0.12377578"
       id="path245" /><path
       d="m 1061.7645,1019.7116 c -2.0794,0 -4.1588,0 -6.2506,0 -2.327,0 -2.327,-3.6055 0,-3.6055 2.0918,0 4.1712,0 6.2506,0 2.327,0 2.327,3.6055 0,3.6055"
       style="fill:#a3d5f0;fill-opacity:1;fill-rule:nonzero;stroke:none;stroke-width:0.12377578"
       id="path247" /><path
       d="m 1045.8965,1018.9913 c -2.0795,0 -4.1589,0 -6.2507,0 -2.327,0 -2.327,-3.6069 0,-3.6069 2.0918,0 4.1712,0 6.2507,0 2.327,0 2.327,3.6069 0,3.6069"
       style="fill:#a3d5f0;fill-opacity:1;fill-rule:nonzero;stroke:none;stroke-width:0.12377578"
       id="path249" /><path
       d="m 885.1291,1086.8823 c -0.0483,3.8432 -0.27479,7.7137 -0.0755,11.5507 2.98919,0.1684 5.98332,0.1213 8.97003,-0.059 -0.0582,-3.6712 -0.31191,-7.3362 -0.4394,-11.0061 -2.80971,-0.2797 -5.63799,-0.5855 -8.45512,-0.4852 z m 10.72517,14.983 c -4.15516,0.3169 -8.33135,0.432 -12.4865,0.074 -0.56195,-0.048 -0.9865,-0.302 -1.27489,-0.6523 -0.28221,-0.2822 -0.4852,-0.6622 -0.52853,-1.1511 -0.44188,-4.9523 -0.01,-9.9751 -0.0322,-14.9397 -0.006,-1.0596 0.8293,-1.7007 1.80218,-1.8022 3.99053,-0.4209 8.02067,0.1832 11.99511,0.5322 0.99392,0.088 1.78113,0.7551 1.80341,1.8034 0.0953,4.7815 0.54957,9.5481 0.52481,14.332 -0.005,1.0397 -0.81939,1.7279 -1.80341,1.8034"
       style="fill:#a3d5f0;fill-opacity:1;fill-rule:nonzero;stroke:none;stroke-width:0.12377578"
       id="path251" /><path
       d="m 893.54214,1064.2078 c -0.0594,-3.6638 -0.31192,-7.3201 -0.43941,-10.9814 -2.80847,-0.2797 -5.63798,-0.5854 -8.45512,-0.4852 -0.047,3.7764 -0.26859,7.5788 -0.0866,11.349 2.98918,0.2067 5.98827,0.255 8.98117,0.1176 z M 882.8541,1049.252 c 3.99053,-0.4196 8.02067,0.1844 11.99387,0.5334 0.99516,0.088 1.78237,0.7551 1.80341,1.8035 0.0965,4.7814 0.54957,9.5468 0.52605,14.332 -0.005,1.036 -0.81939,1.7316 -1.80341,1.8034 -3.90265,0.2809 -7.82634,0.2166 -11.72652,-0.093 -0.67458,0.2154 -1.51502,0.046 -2.04849,-0.5 l -0.0173,-0.015 -0.0842,-0.088 c -0.53842,-0.5396 -0.70304,-1.3788 -0.48396,-2.0497 -0.30572,-4.6218 0.0582,-9.298 0.0371,-13.9235 -0.005,-1.0608 0.83054,-1.7007 1.80342,-1.8034"
       style="fill:#a3d5f0;fill-opacity:1;fill-rule:nonzero;stroke:none;stroke-width:0.12377578"
       id="path253" /><path
       d="m 885.1291,1018.1186 c -0.0483,3.7826 -0.26983,7.59 -0.0866,11.3664 2.98919,0.198 5.98951,0.2389 8.98117,0.1002 -0.0594,-3.6637 -0.31191,-7.3188 -0.4394,-10.9813 -2.80971,-0.2798 -5.63799,-0.5855 -8.45512,-0.4853 z m 10.72517,14.9831 c -3.91751,0.281 -7.861,0.2228 -11.77851,-0.08 -0.47653,0.1386 -1.02981,0.09 -1.49768,-0.1449 -1.37763,-0.3416 -1.75267,-2.0138 -1.11151,-2.9384 -0.25869,-4.4856 0.0866,-9.0183 0.0656,-13.5039 -0.006,-1.0608 0.8293,-1.7007 1.80218,-1.8035 3.99053,-0.4208 8.02067,0.1832 11.99511,0.5323 0.99392,0.088 1.78113,0.755 1.80341,1.8034 0.0953,4.7815 0.54957,9.5481 0.52481,14.332 -0.005,1.0372 -0.81939,1.7329 -1.80341,1.8034"
       style="fill:#a3d5f0;fill-opacity:1;fill-rule:nonzero;stroke:none;stroke-width:0.12377578"
       id="path255" /><path
       d="m 1534.4271,529.10152 c -5.0748,8.5034 -125.3972,221.50419 -147.8749,233.98079 -51.763,28.73083 -149.2241,28.06492 -240.1745,27.39776 -35.3009,-0.25869 -69.6239,-0.51738 -99.9119,0.94194 -218.25995,10.51723 -406.14416,13.70445 -518.93731,32.45772 -89.40944,-7.21241 -117.90139,-172.63008 -119.73574,-214.94531 -1.7242,-39.76792 -6.09967,-143.53782 -7.93403,-273.37119 77.35491,-5.17506 170.99624,-4.8223 374.00338,-4.46954 164.17743,0.28468 399.8824,0.56937 756.3567,-2.06953 4.0103,34.96913 20.4354,172.84174 4.2083,200.07736"
       style="fill:#aae3d7;fill-opacity:1;fill-rule:nonzero;stroke:none;stroke-width:0.12377578"
       id="path257" /><path
       d="m 498.80632,391.43438 c 0.40969,47.37271 1.91357,94.72313 3.34813,142.07108 1.35906,44.891 1.54967,90.10877 7.37209,134.70766 4.67377,35.79348 11.00119,71.36788 37.11788,98.11087 11.62873,11.90723 25.04603,21.83529 38.93862,30.93652 8.69401,5.69493 18.4364,10.49124 27.41139,16.20597 -31.84256,2.87407 -60.49789,6.26181 -85.46594,10.41325 -89.40944,-7.21241 -117.90139,-172.63008 -119.73574,-214.94531 -1.7242,-39.76792 -6.09967,-143.53782 -7.93403,-273.37119 29.09845,-1.94699 60.50903,-3.11048 99.17163,-3.78754 -0.33419,19.88335 -0.39608,39.77288 -0.22403,59.65869"
       style="fill:#c1ebe2;fill-opacity:1;fill-rule:nonzero;stroke:none;stroke-width:0.12377578"
       id="path259" /><path
       d="m 1463.6522,507.50141 c -191.4193,-6.78044 -383.0119,-8.93042 -574.53381,-5.64418 -47.94084,0.82311 -95.87796,1.96185 -143.80394,3.46696 -45.04943,1.41476 -90.14095,2.39135 -135.1025,5.71597 -43.7795,3.2355 -87.5887,8.39695 -130.41512,18.26435 -17.97348,4.1403 -35.99771,8.80789 -53.49218,14.67115 -6.56754,2.20073 -20.43414,7.15176 -20.85003,7.30648 -1.95813,-52.22348 -4.3569,-128.02253 -5.5959,-215.71891 139.9149,-9.35992 333.11033,-0.63744 1130.36008,-6.53907 3.4286,29.80521 15.8556,134.35118 9.3946,181.44663 -25.3122,-1.06571 -50.6367,-2.07201 -75.9612,-2.96938"
       style="fill:#9cdbce;fill-opacity:1;fill-rule:nonzero;stroke:none;stroke-width:0.12377578"
       id="path261" /><path
       d="m 498.80632,391.43562 c 0.38494,44.4157 1.73038,88.81284 3.07954,133.20873 -7.38818,1.42838 -14.75407,2.97062 -22.08903,4.66016 -17.97348,4.1403 -35.99771,8.80789 -53.49218,14.67115 -6.56754,2.20073 -20.43414,7.15176 -20.85003,7.30648 -1.95813,-52.22348 -4.3569,-128.02253 -5.5959,-215.71891 29.09845,-1.94699 60.50903,-3.11048 99.17163,-3.78754 -0.33419,19.88335 -0.39608,39.77288 -0.22403,59.65993"
       style="fill:#b4e0d7;fill-opacity:1;fill-rule:nonzero;stroke:none;stroke-width:0.12377578"
       id="path263" /><path
       d="m 296.17546,843.52295 c -17.85218,-9.55797 -61.43735,-32.20522 -59.86787,-42.01569 8.35115,6.67399 28.13052,20.55668 60.94967,37.50654 -0.40351,1.5113 -0.64982,3.00651 -1.0818,4.50915"
       style="fill:#b8c1e6;fill-opacity:1;fill-rule:nonzero;stroke:none;stroke-width:0.12377578"
       id="path265" /><path
       d="m 323.39871,894.65967 c -1.52121,1.17959 -3.02508,2.38393 -4.51163,3.60683 0.859,-8.40438 1.63508,-18.47849 2.12647,-26.52762 0.0681,-1.12141 0.11758,-2.22921 0.15967,-3.33205 0.58422,-0.0124 1.17339,0.005 1.7638,0.021 0.87633,0.026 1.75514,0.0507 2.63148,-0.021 0.0384,0.69686 -1.30584,14.98553 -2.16979,26.25284"
       style="fill:#b8c1e6;fill-opacity:1;fill-rule:nonzero;stroke:none;stroke-width:0.12377578"
       id="path267" /><path
       d="m 307.71631,817.55603 c -11.74755,-9.2968 -30.11341,-26.68854 -42.37587,-29.93394 2.48294,-2.08686 8.4118,0.43445 11.53714,1.63508 6.54526,3.27263 23.9667,15.92499 34.44432,24.51132 -1.31821,1.1474 -3.5734,3.81229 -3.60559,3.78754"
       style="fill:#b8c1e6;fill-opacity:1;fill-rule:nonzero;stroke:none;stroke-width:0.12377578"
       id="path269" /><path
       d="m 366.13972,820.42762 c 0.33915,0.79836 0.66591,1.60538 0.97907,2.41858 -0.0198,-0.26735 -0.0458,-0.52852 -0.0755,-0.78226 -0.15472,-0.53842 -0.46168,-1.08551 -0.90356,-1.63632"
       style="fill:#e5eef1;fill-opacity:1;fill-rule:nonzero;stroke:none;stroke-width:0.12377578"
       id="path271" /><path
       d="m 320.00725,806.03498 c -2.97433,0 -5.35083,0.34657 -6.78786,1.12017 -1.744,0.94069 -3.47315,2.30347 -5.15279,3.99177 1.14121,0.9048 2.23168,1.78237 3.2553,2.62157 -1.31202,1.14245 -3.5536,3.78754 -3.60559,3.78754 v 0 c -0.97411,-0.77113 -1.99526,-1.59919 -3.05354,-2.46809 -4.55124,5.97094 -8.5133,14.0535 -11.10517,21.99991 1.21424,0.63744 2.44829,1.27984 3.69966,1.92595 -0.0495,0.18566 -0.0965,0.37132 -0.14234,0.55575 1.71924,-5.86202 4.34082,-11.94808 7.45378,-17.07982 -0.16463,-0.16338 -0.22156,-0.44931 -0.026,-0.65106 0.39361,-0.40351 0.79093,-0.80083 1.19444,-1.19444 2.88026,-4.35567 6.11452,-7.83748 9.41067,-9.61366 0.0136,-0.007 0.0272,-0.0149 0.0421,-0.0223 0.70428,-0.37009 1.65117,-0.62755 2.79485,-0.78598 1.65365,-1.39124 3.32586,-2.82456 5.08719,-4.08089 -1.07685,-0.0706 -2.10171,-0.10644 -3.06469,-0.10644 m 7.44388,0.53595 c -1.25138,1.2984 -2.68965,2.44209 -4.19105,3.51399 3.9633,0.20423 8.78189,0.95555 13.66361,2.06706 0.0594,0.0136 0.12006,0.0272 0.18071,0.0421 0.0582,0.0124 0.11635,0.026 0.17452,0.0396 11.61636,2.68593 23.50007,7.39313 25.08069,11.63616 10e-4,0 10e-4,10e-4 10e-4,10e-4 0.005,0.0149 0.01,0.0285 0.0161,0.0433 0.0173,0.052 0.0346,0.10397 0.0507,0.15472 0.002,0.01 0.005,0.0186 0.007,0.0272 0.24879,0.87138 0.37009,1.92843 0.37009,3.13153 0.002,8.2806 -5.69245,23.50378 -14.35551,32.95035 0.75998,-0.22899 1.51996,-0.43693 2.28242,-0.61641 0.0965,-0.0223 0.19062,-0.0334 0.28097,-0.0334 1.04467,0 1.5571,1.43457 0.56937,2.05221 -2.40744,1.51006 -5.22829,2.30718 -8.02438,3.02013 -1.593,1.15482 -3.25283,2.09057 -4.9696,2.74906 v 0 c -0.01,0.004 -0.0186,0.007 -0.0272,0.0111 -1.89872,0.71913 -4.99064,1.1115 -8.67668,1.18205 -0.61888,0.18938 -1.23652,0.37752 -1.85664,0.56318 -0.0347,0.01 -0.0681,0.0149 -0.099,0.0149 -0.2785,0 -0.39361,-0.38742 -0.17081,-0.57185 -0.71419,-0.009 -1.44694,-0.0285 -2.18959,-0.0594 -0.009,0.3738 -0.11264,1.69078 -0.27726,3.63158 1.08675,0.0421 2.14875,0.0619 3.17732,0.0619 4.8025,0 8.87101,-0.44931 11.24998,-1.36153 17.10458,-6.56012 28.32485,-35.36646 27.40025,-47.9755 -0.31316,-0.8132 -0.63992,-1.62022 -0.97907,-2.41858 -4.65892,-5.80384 -24.32689,-12.02481 -38.68859,-13.85669"
       style="fill:#f1e3e1;fill-opacity:1;fill-rule:nonzero;stroke:none;stroke-width:0.12377578"
       id="path273" /><path
       d="m 323.07194,806.14142 c -1.76133,1.25633 -3.43354,2.68965 -5.08719,4.08089 0.94689,-0.12996 2.02498,-0.19309 3.21198,-0.19309 10e-4,0 0.002,0 0.004,0 v 0 0 c 0.65601,0 1.34297,0.0198 2.05963,0.0557 1.5014,-1.0719 2.93967,-2.21559 4.19105,-3.51399 -1.5274,-0.19433 -2.99538,-0.34039 -4.37919,-0.42951 m -17.3348,14.50281 c -0.40351,0.39361 -0.80083,0.79093 -1.19444,1.19444 -0.19556,0.20175 -0.13863,0.48768 0.026,0.65106 0.38246,-0.63002 0.77112,-1.24642 1.16844,-1.8455"
       style="fill:#e7d7d5;fill-opacity:1;fill-rule:nonzero;stroke:none;stroke-width:0.12377578"
       id="path275" /><path
       d="m 351.01308,859.52839 c -0.0904,0 -0.18442,0.0111 -0.28097,0.0334 -0.76246,0.17948 -1.52244,0.38742 -2.28242,0.61641 -1.54101,1.67963 -3.17733,3.17856 -4.89162,4.42251 2.79609,-0.71295 5.61694,-1.51007 8.02438,-3.02013 0.98773,-0.61764 0.4753,-2.05221 -0.56937,-2.05221 m -21.12852,9.01459 c -0.40723,0.007 -0.82187,0.0111 -1.24271,0.0111 -10e-4,0 -0.002,0 -0.005,0 v 0 0 c -0.0965,0 -0.19309,0 -0.29088,0 -0.19432,-0.001 -0.38989,-0.002 -0.58793,-0.005 -0.2228,0.18443 -0.10769,0.57185 0.17081,0.57185 0.0309,0 0.0644,-0.005 0.099,-0.0149 0.62012,-0.18566 1.23776,-0.3738 1.85664,-0.56318"
       style="fill:#e7d7d5;fill-opacity:1;fill-rule:nonzero;stroke:none;stroke-width:0.12377578"
       id="path277" /><path
       d="m 292.27281,841.43856 c -2.07572,7.87214 -2.61786,15.19224 -0.83054,19.66798 0.36762,0.92089 1.01249,1.78608 1.88387,2.59557 1.14122,0.0285 2.29976,0.0594 3.45954,0.0904 1.84549,0.0495 3.69223,0.099 5.46346,0.1411 -3.14638,-1.38381 -5.45604,-3.07087 -6.31504,-5.05376 -0.004,-0.0111 -0.009,-0.021 -0.0124,-0.0322 -0.005,-0.009 -0.009,-0.0186 -0.0124,-0.0285 -0.009,-0.021 -0.0173,-0.0421 -0.026,-0.0644 -0.65354,-1.63508 -0.95555,-3.7009 -0.95431,-6.0514 0,-2.75649 0.41712,-5.90906 1.1672,-9.22377 -1.17091,-0.62631 -2.45199,-1.30955 -3.82343,-2.04107 m 5.9202,25.32082 c 5.92638,2.71564 14.68475,4.43241 22.81311,5.10327 0.002,-0.0421 0.005,-0.0829 0.007,-0.12377 0.0681,-1.12141 0.11758,-2.22921 0.15967,-3.33205 0.1411,-0.002 0.28221,-0.004 0.42331,-0.004 0.44436,0 0.89242,0.0124 1.34049,0.0248 0.44807,0.0136 0.89738,0.026 1.34545,0.026 0.1411,0 0.28097,-10e-4 0.42207,-0.004 -2.93844,-0.15224 -6.04397,-0.46787 -9.08762,-0.94317 -0.2983,0.0235 -0.61021,0.0359 -0.93574,0.0359 -0.12749,0 -0.25374,-0.002 -0.38494,-0.006 -2.24901,-0.0631 -9.06039,-0.33296 -16.10323,-0.77731"
       style="fill:#f1e3e1;fill-opacity:1;fill-rule:nonzero;stroke:none;stroke-width:0.12377578"
       id="path279" /><path
       d="m 293.32614,863.70211 c 1.21919,1.13008 2.88398,2.14875 4.86687,3.05727 7.04284,0.44435 13.85422,0.71418 16.10323,0.77731 0.1312,0.004 0.25745,0.006 0.38494,0.006 0.32553,0 0.63744,-0.0124 0.93574,-0.0359 -4.93741,-0.77236 -9.71516,-1.96803 -13.36778,-3.57341 -1.77123,-0.0421 -3.61797,-0.0916 -5.46346,-0.1411 -1.15978,-0.0309 -2.31832,-0.0619 -3.45954,-0.0904"
       style="fill:#e7d7d5;fill-opacity:1;fill-rule:nonzero;stroke:none;stroke-width:0.12377578"
       id="path281" /><path
       d="m 293.5576,837.08785 c -0.47653,1.46055 -0.90604,2.91368 -1.28479,4.35071 1.37144,0.73152 2.65252,1.41476 3.82343,2.04107 0.29088,-1.28356 0.6325,-2.59063 1.01868,-3.91008 0.0458,-0.18443 0.0928,-0.37009 0.14234,-0.55575 -1.25137,-0.64611 -2.48542,-1.28851 -3.69966,-1.92595"
       style="fill:#e3e6f2;fill-opacity:1;fill-rule:nonzero;stroke:none;stroke-width:0.12377578"
       id="path283" /><path
       d="m 321.59653,868.40312 c -0.1411,0 -0.28221,0.001 -0.42331,0.004 -0.0421,1.10284 -0.0916,2.21064 -0.15967,3.33205 -0.002,0.0408 -0.005,0.0817 -0.007,0.12377 1.4556,0.12006 2.89016,0.20671 4.28512,0.25869 0.16462,-1.9408 0.26859,-3.25778 0.27726,-3.63158 -0.28716,-0.0111 -0.57432,-0.0248 -0.86396,-0.0396 -0.1411,0.002 -0.28097,0.004 -0.42207,0.004 -0.44807,0 -0.89738,-0.0124 -1.34545,-0.026 -0.44807,-0.0124 -0.89613,-0.0248 -1.34049,-0.0248"
       style="fill:#e3e6f2;fill-opacity:1;fill-rule:nonzero;stroke:none;stroke-width:0.12377578"
       id="path285" /><path
       d="m 308.0666,811.14692 c -1.16225,1.16844 -2.29975,2.4916 -3.40383,3.94102 1.05828,0.8689 2.07943,1.69696 3.05354,2.46809 v 0 c 0.052,0 2.29357,-2.64509 3.60559,-3.78754 -1.02362,-0.8392 -2.11409,-1.71677 -3.2553,-2.62157"
       style="fill:#e3e6f2;fill-opacity:1;fill-rule:nonzero;stroke:none;stroke-width:0.12377578"
       id="path287" /><path
       d="m 323.26008,810.08492 c -1.93338,1.38134 -3.97073,2.64509 -5.85088,3.96949 -4.07223,2.86912 -8.12588,5.80385 -12.31941,8.49226 -0.0767,0.0495 -0.15472,0.0718 -0.22774,0.0718 -0.11264,0 -0.21537,-0.0507 -0.29335,-0.12873 -3.11296,5.13174 -5.73454,11.2178 -7.45378,17.07982 -0.32429,1.32316 -0.56071,2.63519 -0.93946,3.9534 -0.026,-0.0149 -0.052,-0.0285 -0.0792,-0.0433 -0.75008,3.31471 -1.1672,6.46728 -1.1672,9.22377 -10e-4,2.3505 0.30077,4.41632 0.95431,6.0514 0.009,0.0223 0.0173,0.0433 0.026,0.0644 0.004,0.01 0.007,0.0198 0.0124,0.0285 0.004,0.0111 0.009,0.021 0.0124,0.0322 0.85776,1.98289 3.1699,3.66995 6.31628,5.05376 2.82456,0.0668 5.45851,0.11512 7.59735,0.11512 2.1438,0 3.79002,-0.0483 4.63169,-0.17577 6.60344,-0.99763 0.81073,-10.90712 0.14235,-14.22926 -0.32182,-1.60042 0.82434,-2.57206 2.01135,-2.57206 0.80826,0 1.63508,0.44931 2.0324,1.45808 2.69584,6.85346 5.96971,18.25321 -3.0486,18.9773 3.04365,0.4753 6.14918,0.79093 9.08762,0.94317 0.2884,-0.006 0.57556,-0.0198 0.86396,-0.0433 10e-4,0.0186 10e-4,0.047 0,0.0829 0.74265,0.0309 1.4754,0.0507 2.18959,0.0594 0.009,-0.007 0.0173,-0.0136 0.0272,-0.0198 3.30234,-2.25396 6.87698,-3.53009 10.64719,-4.79631 3.30482,-1.10903 6.648,-2.53988 10.01718,-3.55484 8.66306,-9.44657 14.35799,-24.66975 14.35551,-32.95035 0,-1.2031 -0.1213,-2.26015 -0.37009,-3.13153 -0.002,-0.009 -0.005,-0.0173 -0.007,-0.0272 -0.0161,-0.0507 -0.0334,-0.10274 -0.0507,-0.15472 -0.006,-0.0149 -0.0111,-0.0285 -0.0161,-0.0433 0,0 0,-10e-4 -0.001,-10e-4 -1.58062,-4.2418 -13.46557,-8.94899 -25.08069,-11.63616 -0.0582,-0.0136 -0.11635,-0.0272 -0.17452,-0.0396 -0.0619,-0.0149 -0.12006,-0.0285 -0.18071,-0.0421 -4.88296,-1.11275 -9.70031,-1.86283 -13.66361,-2.06706 m 8.12093,33.14097 c -0.58794,-1.19568 -1.18206,-2.3765 -1.7997,-3.52142 -2.47181,-4.58837 -5.25429,-9.70774 -5.16517,-15.02762 0.0173,-1.02982 0.86148,-1.7143 1.68335,-1.7143 0.54709,0 1.08428,0.30202 1.36278,1.00754 2.1277,5.39291 3.64024,10.7425 6.28409,15.97698 0.17205,0.33914 0.34905,0.682 0.531,1.02733 2.11285,-1.08675 4.12545,-1.54348 5.95485,-1.59051 -1.33678,-2.56588 -1.93833,-5.80014 -0.94317,-7.81521 0.13987,-0.28468 0.37999,-0.40351 0.62878,-0.40351 0.35648,0 0.73275,0.24384 0.86519,0.59908 0.63869,1.72667 0.531,3.57217 1.30336,5.32236 0.43446,0.98525 1.05829,1.83435 1.63137,2.71316 2.92111,0.78474 4.99435,2.50275 5.67759,3.665 2.48171,4.21828 -1.49521,13.38017 -6.58115,15.33087 -1.42962,0.54833 -4.57476,1.64993 -7.79664,1.64993 -2.8716,0 -5.80261,-0.87385 -7.63573,-3.79249 -1.71182,-2.72802 0.83301,-9.77333 3.9992,-13.42719 m -9.08143,3.52142 c -0.0409,0 -0.0829,-0.001 -0.12625,-0.005 -0.26984,-0.0235 -0.57185,-0.22899 -0.5409,-0.5409 0.099,-0.9766 1.00629,-1.56701 1.73657,-2.11781 0.86148,-0.64858 2.04478,-0.77607 3.08944,-0.77607 0.0136,0 0.0285,0 0.0433,10e-4 1.11151,0.004 1.29594,1.58433 0.25746,1.90367 -0.7736,0.23765 -1.52739,0.54585 -2.28243,0.83672 -0.40722,0.1572 -0.82929,0.24384 -1.23157,0.42455 -0.32676,0.1473 -0.59907,0.27355 -0.94564,0.27355 m -4.31483,-36.525 c -1.14245,0.15843 -2.09181,0.41713 -2.79485,0.78598 -0.0149,0.007 -0.0285,0.0149 -0.0421,0.0223 -3.29615,1.77618 -6.53041,5.25799 -9.41067,9.61366 3.16495,-3.09192 6.63314,-5.89049 10.08896,-8.64202 0.71914,-0.57308 1.43704,-1.17216 2.15865,-1.7799 m 25.57332,54.37842 c -1.00506,0.25497 -2.00641,0.50005 -2.98547,0.76369 -3.59322,0.96669 -7.1332,2.09058 -10.68804,3.17856 3.6848,-0.0706 6.7792,-0.46292 8.67668,-1.18205 0.009,-0.004 0.0173,-0.007 0.0272,-0.0111 v 0 c 1.71677,-0.65849 3.3766,-1.59424 4.9696,-2.74906"
       style="fill:#efcabe;fill-opacity:1;fill-rule:nonzero;stroke:none;stroke-width:0.12377578"
       id="path289" /><path
       d="m 326.09949,822.96255 c -0.82187,0 -1.66602,0.68448 -1.68335,1.7143 -0.0891,5.31988 2.69336,10.43925 5.16517,15.02762 0.61764,1.14492 1.21176,2.32574 1.7997,3.52142 0.64858,-0.74761 1.32316,-1.35287 1.99279,-1.75019 0.30325,-0.17948 0.60402,-0.34658 0.90356,-0.5013 -0.18195,-0.34533 -0.35895,-0.68819 -0.531,-1.02733 -2.64385,-5.23448 -4.15639,-10.58407 -6.28409,-15.97698 -0.2785,-0.70552 -0.81569,-1.00754 -1.36278,-1.00754"
       style="fill:#d4ac9f;fill-opacity:1;fill-rule:nonzero;stroke:none;stroke-width:0.12377578"
       id="path291" /><path
       d="m 339.91782,831.16517 c -0.24879,0 -0.48891,0.11883 -0.62878,0.40351 -0.99516,2.01507 -0.39361,5.24933 0.94317,7.81521 0.10397,-0.002 0.20671,-0.004 0.31068,-0.004 1.13874,0 2.20445,0.15844 3.17485,0.4196 -0.57308,-0.87881 -1.19691,-1.72791 -1.63137,-2.71316 -0.77236,-1.75019 -0.66467,-3.59569 -1.30336,-5.32236 -0.13244,-0.35524 -0.50871,-0.59908 -0.86519,-0.59908"
       style="fill:#d4ac9f;fill-opacity:1;fill-rule:nonzero;stroke:none;stroke-width:0.12377578"
       id="path293" /><path
       d="m 316.63312,847.0716 c -1.18701,0 -2.33317,0.97164 -2.01135,2.57206 0.66838,3.32214 6.46109,13.23163 -0.14235,14.22926 -0.84167,0.12749 -2.48789,0.17577 -4.63169,0.17577 -2.13884,0 -4.77279,-0.0483 -7.59735,-0.11512 3.65138,1.60538 8.42913,2.80105 13.36654,3.57341 9.01831,-0.72409 5.74444,-12.12384 3.0486,-18.9773 -0.39732,-1.00877 -1.22414,-1.45808 -2.0324,-1.45808"
       style="fill:#d4ac9f;fill-opacity:1;fill-rule:nonzero;stroke:none;stroke-width:0.12377578"
       id="path295" /><path
       d="m 326.45844,843.30758 c -1.04466,0 -2.22796,0.12749 -3.08944,0.77607 -0.73028,0.5508 -1.63755,1.14121 -1.73657,2.11781 -0.031,0.31191 0.27106,0.51738 0.5409,0.5409 0.0433,0.004 0.0854,0.005 0.12625,0.005 0.34657,0 0.61888,-0.12625 0.94564,-0.27355 0.40228,-0.18071 0.82435,-0.26735 1.23157,-0.42455 0.75504,-0.29087 1.50883,-0.59907 2.28243,-0.83672 1.03848,-0.31934 0.85405,-1.89996 -0.25746,-1.90367 -0.0149,-10e-4 -0.0297,-10e-4 -0.0433,-10e-4"
       style="fill:#d4ac9f;fill-opacity:1;fill-rule:nonzero;stroke:none;stroke-width:0.12377578"
       id="path297" /><path
       d="m 321.20045,810.02922 c -10e-4,0 -0.002,0 -0.004,0 -1.187,10e-4 -2.26509,0.0631 -3.21198,0.19309 -0.72161,0.60774 -1.43951,1.20682 -2.15865,1.7799 -3.45582,2.75153 -6.92401,5.5501 -10.08896,8.64202 -0.39732,0.59908 -0.78598,1.21548 -1.16844,1.8455 0.078,0.078 0.18071,0.12873 0.29335,0.12873 0.073,0 0.151,-0.0223 0.22774,-0.0718 4.19353,-2.68841 8.24718,-5.62314 12.31941,-8.49226 1.88015,-1.3244 3.9175,-2.58815 5.85088,-3.96949 -0.71666,-0.0359 -1.40362,-0.0557 -2.05963,-0.0557"
       style="fill:#d4ac9f;fill-opacity:1;fill-rule:nonzero;stroke:none;stroke-width:0.12377578"
       id="path299" /><path
       d="m 348.44969,860.17822 c -3.36918,1.01496 -6.71236,2.44581 -10.01718,3.55484 -3.77021,1.26622 -7.34485,2.54235 -10.64719,4.79631 -0.01,0.006 -0.0186,0.0124 -0.0272,0.0198 0.19804,0.002 0.39361,0.004 0.58793,0.005 0.0978,0 0.19433,0 0.29088,0 0.002,0 0.004,0 0.005,0 0.42084,0 0.83548,-0.004 1.24271,-0.0111 3.55484,-1.08798 7.09482,-2.21187 10.68804,-3.17856 0.97906,-0.26364 1.98041,-0.50872 2.98547,-0.76369 1.71429,-1.24395 3.35061,-2.74288 4.89162,-4.42251"
       style="fill:#d4ac9f;fill-opacity:1;fill-rule:nonzero;stroke:none;stroke-width:0.12377578"
       id="path301" /><path
       d="m 297.11492,839.56955 c -0.38618,1.31945 -0.7278,2.62652 -1.01868,3.91008 0.0272,0.0149 0.0532,0.0285 0.0792,0.0433 0.37875,-1.31821 0.61517,-2.63024 0.93946,-3.9534"
       style="fill:#ccd2e9;fill-opacity:1;fill-rule:nonzero;stroke:none;stroke-width:0.12377578"
       id="path303" /><path
       d="m 325.5685,868.40683 c -0.2884,0.0235 -0.57556,0.0371 -0.86396,0.0433 0.28964,0.0149 0.5768,0.0285 0.86396,0.0396 0.001,-0.0359 0.001,-0.0644 0,-0.0829"
       style="fill:#ccd2e9;fill-opacity:1;fill-rule:nonzero;stroke:none;stroke-width:0.12377578"
       id="path305" /><path
       d="m 336.92369,812.15198 c 0.0607,0.0136 0.11882,0.0272 0.18071,0.0421 -0.0607,-0.0149 -0.1213,-0.0285 -0.18071,-0.0421 m 0.35523,0.0817 c 11.61512,2.68717 23.50007,7.39436 25.08069,11.63616 -1.58062,-4.24303 -13.46433,-8.95023 -25.08069,-11.63616 m 25.08193,11.6374 c 0.005,0.0149 0.01,0.0285 0.0161,0.0433 -0.006,-0.0149 -0.0111,-0.0285 -0.0161,-0.0433 m 0.0668,0.19804 c 0.002,0.01 0.005,0.0186 0.007,0.0272 0.24879,0.87138 0.37009,1.92843 0.37009,3.13153 0,-1.2031 -0.1213,-2.26015 -0.37009,-3.13153 -0.002,-0.009 -0.005,-0.0173 -0.007,-0.0272 m -66.51835,34.75005 c 0.004,0.01 0.007,0.0198 0.0124,0.0285 -0.005,-0.009 -0.009,-0.0186 -0.0124,-0.0285 m 0.0248,0.0607 c 0.859,1.98289 3.16866,3.66995 6.31504,5.05376 h 10e-4 c -3.14638,-1.38381 -5.45852,-3.07087 -6.31628,-5.05376 m 19.68282,8.62717 v 0 c 3.04365,0.4753 6.14918,0.79093 9.08762,0.94317 v 0 c -2.93844,-0.15224 -6.04397,-0.46787 -9.08762,-0.94317"
       style="fill:#e8e2e6;fill-opacity:1;fill-rule:nonzero;stroke:none;stroke-width:0.12377578"
       id="path307" /><path
       d="m 302.24914,863.93357 c 3.65262,1.60538 8.43037,2.80105 13.36778,3.57341 v 0 c -4.93741,-0.77236 -9.71516,-1.96803 -13.36654,-3.57341 h -0.001"
       style="fill:#e3dde0;fill-opacity:1;fill-rule:nonzero;stroke:none;stroke-width:0.12377578"
       id="path309" /><path
       d="m 325.5685,868.48976 v 0 c 0.74265,0.0309 1.4754,0.0507 2.18959,0.0594 v 0 c -0.71419,-0.009 -1.44694,-0.0285 -2.18959,-0.0594"
       style="fill:#e8e2e6;fill-opacity:1;fill-rule:nonzero;stroke:none;stroke-width:0.12377578"
       id="path311" /><path
       d="m 324.70454,868.45015 v 0 c 0.28964,0.0149 0.5768,0.0285 0.86396,0.0396 v 0 c -0.28716,-0.0111 -0.57432,-0.0248 -0.86396,-0.0396"
       style="fill:#e1e4ee;fill-opacity:1;fill-rule:nonzero;stroke:none;stroke-width:0.12377578"
       id="path313" /><path
       d="m 340.23221,839.38389 c -1.8294,0.047 -3.842,0.50376 -5.95485,1.59051 2.44581,4.64283 5.70606,9.84884 5.68007,15.07713 -10e-4,0.46169 -0.38494,0.81568 -0.77607,0.81568 -0.20052,0 -0.40351,-0.0916 -0.55947,-0.30943 -2.86541,-3.98806 -5.00178,-8.77818 -7.24088,-13.33189 -3.16619,3.65386 -5.71102,10.69917 -3.9992,13.42719 1.83312,2.91864 4.76413,3.79249 7.63573,3.79249 3.22188,0 6.36702,-1.1016 7.79664,-1.64993 5.08594,-1.9507 9.06286,-11.11259 6.58115,-15.33087 -0.68324,-1.16225 -2.75648,-2.88026 -5.67759,-3.665 0.41465,0.63621 0.8033,1.28727 1.07437,2.01755 0.25498,0.68819 -0.37133,1.22538 -0.9902,1.22538 -0.15844,0 -0.31563,-0.0347 -0.45797,-0.1114 -1.18206,-0.63126 -2.28738,-1.96185 -3.11173,-3.54741"
       style="fill:#e7d6d5;fill-opacity:1;fill-rule:nonzero;stroke:none;stroke-width:0.12377578"
       id="path315" /><path
       d="m 334.27736,840.9744 c -0.29954,0.15472 -0.60031,0.32182 -0.90356,0.5013 -0.66963,0.39732 -1.34421,1.00258 -1.99279,1.75019 2.2391,4.55371 4.37547,9.34383 7.24088,13.33189 0.15596,0.21784 0.35895,0.30943 0.55947,0.30943 0.39113,0 0.77483,-0.35399 0.77607,-0.81568 0.026,-5.22829 -3.23426,-10.4343 -5.68007,-15.07713"
       style="fill:#dac7c5;fill-opacity:1;fill-rule:nonzero;stroke:none;stroke-width:0.12377578"
       id="path317" /><path
       d="m 340.54289,839.38017 c -0.10397,0 -0.20671,10e-4 -0.31068,0.004 0.82435,1.58556 1.92967,2.91615 3.11173,3.54741 0.14234,0.0767 0.29953,0.1114 0.45797,0.1114 0.61887,0 1.24518,-0.53719 0.9902,-1.22538 -0.27107,-0.73028 -0.65972,-1.38134 -1.07437,-2.01755 -0.9704,-0.26116 -2.03611,-0.4196 -3.17485,-0.4196"
       style="fill:#dac7c5;fill-opacity:1;fill-rule:nonzero;stroke:none;stroke-width:0.12377578"
       id="path319" /><path
       d="m 400.3105,813.09639 c -11.01481,7.43273 -21.28201,15.00286 -29.87452,22.37989 0.32058,2.71936 0.30696,5.28894 -0.14729,7.56518 -0.18567,0.93203 -0.45426,1.89377 -0.7996,2.88521 1.24147,1.56824 2.44581,3.13153 3.32091,4.6416 12.96675,-9.30299 25.45201,-17.95987 37.50282,-26.00653 -3.20579,-1.76257 -6.68141,-6.33114 -10.00232,-11.46535"
       style="fill:#d9e4e9;fill-opacity:1;fill-rule:nonzero;stroke:none;stroke-width:0.12377578"
       id="path321" /><path
       d="m 370.43598,835.47628 c -1.8096,1.55339 -3.54742,3.10059 -5.19982,4.63293 1.09294,1.88634 2.70202,3.85686 4.25293,5.81746 0.34534,-0.99144 0.61393,-1.95318 0.7996,-2.88521 0.45425,-2.27624 0.46787,-4.84582 0.14729,-7.56518"
       style="fill:#e5d8d9;fill-opacity:1;fill-rule:nonzero;stroke:none;stroke-width:0.12377578"
       id="path323" /><path
       d="m 459.26367,777.53932 c -18.74832,10.33651 -39.96349,22.7438 -58.95317,35.55707 3.32091,5.13421 6.79653,9.70278 10.00232,11.46535 20.26334,-13.53117 39.31119,-25.34186 57.41092,-35.62515 -2.94586,-3.60311 -5.76795,-7.41912 -8.46007,-11.39727"
       style="fill:#e5e8ef;fill-opacity:1;fill-rule:nonzero;stroke:none;stroke-width:0.12377578"
       id="path325" /><path
       d="m 948.79441,795.80738 c -5.40777,0.22899 -10.76478,0.45426 -16.12056,0.67953 2.60424,3.90389 4.9795,8.05409 7.10473,12.45432 1.52244,0.005 3.04488,0.01 4.56609,0.01 1.71553,0 3.42859,-0.006 5.14041,-0.021 1.66602,-0.0136 3.33204,-0.0285 4.99806,-0.0433 -1.66478,-4.43984 -3.55608,-8.80665 -5.68873,-13.07939 m 10.25235,27.43614 c -4.57104,0.0334 -9.14332,0.0668 -13.71436,0.099 4.29007,15.0301 5.3075,32.86743 5.02406,49.98809 4.79383,-0.17576 9.782,-0.3181 14.88775,-0.42579 -0.17948,-16.83845 -1.95071,-33.61502 -6.19745,-49.66132"
       style="fill:#d7dae2;fill-opacity:1;fill-rule:nonzero;stroke:none;stroke-width:0.12377578"
       id="path327" /><path
       d="m 965.24421,872.90484 c -5.10575,0.10769 -10.09392,0.25003 -14.88775,0.42579 -0.0743,4.52153 -0.23889,8.98984 -0.45797,13.34798 4.76784,-0.11635 9.87854,-0.19061 15.16501,-0.22279 0.16338,-4.51535 0.23022,-9.03316 0.18071,-13.55098"
       style="fill:#dadde5;fill-opacity:1;fill-rule:nonzero;stroke:none;stroke-width:0.12377578"
       id="path329" /><path
       d="m 965.0635,886.45582 c -5.28647,0.0322 -10.39717,0.10644 -15.16501,0.22279 -0.13244,2.60672 -0.28221,5.17135 -0.44436,7.68153 1.30707,-0.0619 2.76639,-0.0904 4.29502,-0.0904 3.64272,0 7.66791,0.16338 10.91084,0.43322 0.16833,-2.74288 0.30449,-5.49565 0.40351,-8.24718"
       style="fill:#c1d1e0;fill-opacity:1;fill-rule:nonzero;stroke:none;stroke-width:0.12377578"
       id="path331" /><path
       d="m 953.74915,894.26978 c -1.52863,0 -2.98795,0.0285 -4.29502,0.0904 -0.0953,1.4754 -0.19556,2.93472 -0.29706,4.36928 1.51997,-1.68335 3.83829,-2.83941 6.82005,-2.83941 3.84076,0 6.68513,1.56823 8.34867,3.71203 0.12254,-1.63136 0.23394,-3.26273 0.3342,-4.89904 -3.24293,-0.26984 -7.26812,-0.43322 -10.91084,-0.43322"
       style="fill:#bfcddb;fill-opacity:1;fill-rule:nonzero;stroke:none;stroke-width:0.12377578"
       id="path333" /><path
       d="m 955.97712,895.89001 c -2.98176,0 -5.30008,1.15606 -6.82005,2.83941 -0.12625,1.77371 -0.25498,3.514 -0.38618,5.21591 0.74018,3.34071 3.96454,4.96217 7.31391,4.96217 3.15876,0 6.42644,-1.44198 7.82758,-4.24179 0.14853,-1.68459 0.28716,-3.37289 0.41341,-5.06367 -1.66354,-2.1438 -4.50791,-3.71203 -8.34867,-3.71203"
       style="fill:#bdc9d6;fill-opacity:1;fill-rule:nonzero;stroke:none;stroke-width:0.12377578"
       id="path335" /><path
       d="m 954.48314,808.88677 c -1.66602,0.0149 -3.33204,0.0297 -4.99806,0.0433 -1.71182,0.0149 -3.42488,0.021 -5.14041,0.021 -1.52121,0 -3.04365,-0.005 -4.56609,-0.01 0.87386,1.81208 1.70439,3.66129 2.49532,5.56249 1.1672,2.80971 2.18093,5.76423 3.0585,8.83882 4.57104,-0.0322 9.14332,-0.0656 13.71436,-0.099 -1.28604,-4.85696 -2.79981,-9.65079 -4.56362,-14.35675"
       style="fill:#dce0e8;fill-opacity:1;fill-rule:nonzero;stroke:none;stroke-width:0.12377578"
       id="path337" /><path
       d="m 714.55493,711.56187 c -67.85512,0 -134.56779,11.50496 -185.14134,31.25091 2.25148,4.15887 4.77032,8.19767 7.60479,12.09909 54.50714,-22.33411 105.5993,-32.52704 159.04074,-32.52704 19.85734,0 40.03527,1.40733 60.84074,4.12049 74.52911,9.72135 143.23581,21.18918 175.77399,69.98159 5.35578,-0.22527 10.71279,-0.45054 16.12056,-0.67953 -0.0111,-0.0198 -0.0198,-0.0371 -0.0297,-0.0582 -18.03165,-36.06455 -72.00285,-63.45242 -132.71858,-75.01431 -32.84267,-6.25439 -67.31298,-9.17303 -101.49119,-9.17303 m -255.29126,65.97745 v 0 c 2.69212,3.97815 5.51421,7.79416 8.46007,11.39727 v 0 c -2.94586,-3.60311 -5.76795,-7.41912 -8.46007,-11.39727"
       style="fill:#d4e2e7;fill-opacity:1;fill-rule:nonzero;stroke:none;stroke-width:0.12377578"
       id="path339" /><path
       d="m 529.41359,742.81278 c -7.7595,3.03003 -15.13654,6.25316 -22.0816,9.65947 -7.64068,3.74669 -26.16744,12.9915 -48.06832,25.06707 2.69212,3.97815 5.51421,7.79416 8.46007,11.39727 17.06126,-9.69412 33.27712,-18.02794 48.87411,-25.16485 6.86832,-3.14267 13.66856,-6.09349 20.42053,-8.85987 -2.83447,-3.90142 -5.35331,-7.94022 -7.60479,-12.09909"
       style="fill:#d9e4e9;fill-opacity:1;fill-rule:nonzero;stroke:none;stroke-width:0.12377578"
       id="path341" /><path
       d="m 1001.4189,904.66571 c -0.7204,-62.75308 -1.317,-76.05032 -15.14642,-109.63688 -13.82947,-33.58779 -43.82653,-64.22106 -73.76913,-84.78393 -23.9469,-16.44485 -88.15435,-34.11632 -126.02974,-35.67342 -52.65546,-2.1636 -147.86626,-9.01583 -247.59365,39.20103 -25.48419,12.32188 -52.77675,27.16878 -72.90269,43.98867 1.50016,1.92348 4.27026,8.17416 5.77042,10.09887 29.21233,-17.31128 63.38806,-38.70469 94.00895,-50.01037 70.32692,-25.96692 110.76447,-30.1493 174.55355,-31.01573 34.49755,-0.46787 101.20032,9.12104 122.62096,17.31128 49.04739,18.75327 75.72726,41.78918 100.25962,77.89953 24.53236,36.11158 25.24531,66.3599 22.36009,123.34132 1.80342,5.77043 15.14764,5.77043 15.86804,-0.72037"
       style="fill:#b8c1e6;fill-opacity:1;fill-rule:nonzero;stroke:none;stroke-width:0.12377578"
       id="path343" /><path
       d="m 342.89587,843.02413 c -3.49048,-0.97659 -11.54581,5.30256 -11.51858,9.33517 2.0423,5.05253 11.68815,12.67712 14.18347,13.09919 3.26892,0.55204 7.67905,-1.34792 33.20285,-18.14924 -2.36783,-0.41465 -7.8808,-6.24573 -7.19508,-12.95933 -11.43812,6.78539 -19.236,11.24132 -22.48264,13.0534 -2.03116,1.13255 -2.43962,-2.17474 -6.19002,-4.37919"
       style="fill:#eeeff5;fill-opacity:1;fill-rule:nonzero;stroke:none;stroke-width:0.12377578"
       id="path345" /><path
       d="m 452.63424,798.75449 c -4.32844,-1.80218 -7.48968,-9.05792 -8.65564,-13.70446 2.31213,-1.7341 5.93381,-3.91008 9.90206,-6.1269 -1.60785,-3.24911 -5.57486,-7.93774 -6.52794,-13.82575 5.99694,-4.22571 12.42586,-7.83996 19.15307,-10.76602 0.91099,5.09708 3.78259,11.56189 7.6939,13.99285 0.16215,-0.0842 0.31068,-0.15967 0.43322,-0.22403 0,5.77042 3.60682,10.81924 6.85222,13.70445 -7.45749,6.44377 -19.70758,13.27371 -28.85089,16.94986"
       style="fill:#eeeff5;fill-opacity:1;fill-rule:nonzero;stroke:none;stroke-width:0.12377578"
       id="path347" /><path
       d="m 248.30889,805.52502 c -16.04382,1.57319 -31.6111,-12.80089 -13.24525,-23.70306 14.45206,-8.58014 29.13187,3.13524 38.96833,9.70278 -11.20666,5.91648 -17.36079,9.43295 -25.72308,14.00028"
       style="fill:#ffb191;fill-opacity:1;fill-rule:nonzero;stroke:none;stroke-width:0.12377578"
       id="path349" /></g></svg>